<?xml version="1.0" encoding="utf-8"?>
<!-- Generator: Adobe Illustrator 25.0.1, SVG Export Plug-In . SVG Version: 6.00 Build 0)  -->
<svg version="1.1" id="Capa_1" xmlns="http://www.w3.org/2000/svg" xmlns:xlink="http://www.w3.org/1999/xlink" x="0px" y="0px"
	 viewBox="0 0 512 512" style="enable-background:new 0 0 512 512;" xml:space="preserve">
<style type="text/css">
	.st0{fill:#F9F8F6;}
</style>
<g>
	<path class="st0" d="M342.7,154.3c-35.2-8.7-71.1,0.4-97,23.6c3.3,3,6.7,5.8,9.7,9.3l72.2,89.3c5.2,6.4,4.2,15.9-2.2,21.1
		c-6.5,5.2-15.9,4.2-21.1-2.2l-71.9-89c-13.7-16-32.4-25.4-51-25.4c-58.1,0-101.3,53.2-87.9,111.5c7.3,32,33.8,58.5,65.7,66
		c22.4,5.2,45,1.8,64.4-8.6l-69.2-84.3c-5.2-6.4-4.3-15.9,2.1-21.1c6.4-5.2,15.9-4.3,21.1,2.1l70.9,86.3
		c16.7,20.3,43.5,28.2,67.5,28.2c66.9,0,118-62,102-130.4C409.4,193.3,379.8,163.4,342.7,154.3z"/>
	<path class="st0" d="M467,0H45C20.2,0,0,20.2,0,45v422c0,24.8,20.2,45,45,45h422c24.8,0,45-20.2,45-45V45C512,20.2,491.8,0,467,0z
		 M316,391c-23.9,0-49.2-6.4-69.6-19.9c-28,18.3-60.9,24.3-94,16.6c-43.6-10.1-78.2-44.8-88.2-88.5C46.4,221.7,104.6,151,181,151
		c13.8,0.1,27.4,3.4,40,9.5c33.4-33.2,81.6-46.8,128.8-35.3c47.9,11.7,86.1,50.5,97.4,98.6C467.6,311.3,402,391,316,391z"/>
</g>
</svg>
