<?xml version="1.0" encoding="utf-8"?>
<!-- Generator: Adobe Illustrator 25.0.1, SVG Export Plug-In . SVG Version: 6.00 Build 0)  -->
<svg version="1.1" id="Capa_1" xmlns="http://www.w3.org/2000/svg" xmlns:xlink="http://www.w3.org/1999/xlink" x="0px" y="0px"
	 viewBox="0 0 512 512" style="enable-background:new 0 0 512 512;" xml:space="preserve">
<style type="text/css">
	.st0{fill:#F9F8F6;}
</style>
<g>
	<path class="st0" d="M95.9,400.5L95.9,400.5c-3.5,5.4-4,12.3-1.3,18.1c1.6,3.4,2.8,4.2,2.8,4.3c-0.1-0.1,15-1.1,48.9-55.2
		c2.8-4.5,5.6-9,8.3-13.6C128.6,366.5,107.8,382.1,95.9,400.5z"/>
	<path class="st0" d="M215.2,301.8c22.9-5.5,46.3-9.3,68.9-11.6c-14.3-15.5-29.1-32.8-42.4-50.4
		C233.5,260.7,224.5,281.8,215.2,301.8z"/>
	<path class="st0" d="M233.6,170.8c10.8-37.7,14.9-66.8,9.3-76.9c-3.7-6.6-7.4-9.7-9.1-9.7c-0.1,0-0.3,0-0.4,0.1
		c-6.9,2.9-18.7,28.6-5.5,71.7C229.3,160.8,231.2,165.7,233.6,170.8z"/>
	<path class="st0" d="M354.7,318.1c-0.3,0-0.6,0-1-0.1c9.2,8.7,15.1,14,15.3,14.2c6.5,5.9,28.2,22,42.8,20.2
		c9.1-1.1,14.8-11.9,13.4-14.7C422.1,331.3,400.7,320.7,354.7,318.1z"/>
	<path class="st0" d="M467,0H45C20.2,0,0,20.2,0,45v422c0,24.8,20.2,45,45,45h422c24.8,0,45-20.2,45-45V45C512,20.2,491.8,0,467,0z
		 M415.4,382.3c-31.2,3.8-62.9-24.5-66.4-27.7c-1.7-1.5-17.5-15.6-38.3-36.5c-37.9,1.8-77.6,8.4-112.9,19.3
		c-9.4,18.2-18.6,34.5-27.1,47.9c-16,25.3-45.7,69.3-75.6,67.5c-6.8-0.4-19.5-3.8-27.7-21.5c-7.1-15.2-5.9-32.8,3.3-47
		c20.9-32.5,60.7-55.8,106.3-71.4c17.2-34.1,32.3-70.1,43.9-102.9c-9.7-15.6-17.4-30.9-21.8-45.2c-17.3-56.6-1.3-97.9,22.5-108
		c13.7-5.8,33.3-2.9,47.5,22.6c12.4,22.3,3.2,71.8-15.2,126.5c19.8,28.9,46.5,58.6,69.1,81.9c11.7-0.3,22.9-0.1,33.4,0.5
		c36.5,2.1,82.8,10,95.8,36.3C464,348.2,442.7,379.1,415.4,382.3z"/>
</g>
</svg>
