<?xml version="1.0" encoding="utf-8"?>
<!-- Generator: Adobe Illustrator 25.0.1, SVG Export Plug-In . SVG Version: 6.00 Build 0)  -->
<svg version="1.1" xmlns="http://www.w3.org/2000/svg" xmlns:xlink="http://www.w3.org/1999/xlink" x="0px" y="0px"
	 viewBox="0 0 341.3 512" style="enable-background:new 0 0 341.3 512;" xml:space="preserve">
<style type="text/css">
	.st0{fill:#F9F8F6;}
</style>
<g id="Layer_1">
	<desc>Created using Figma</desc>
	<g>
		<path id="path0_fill" class="st0" d="M85.3,512c47.1,0,85.3-38.2,85.3-85.3v-85.3H85.3C38.2,341.3,0,379.6,0,426.7
			S38.2,512,85.3,512z"/>
		<path id="path1_fill" class="st0" d="M0,256c0-47.1,38.2-85.3,85.3-85.3h85.3v170.7H85.3C38.2,341.3,0,303.1,0,256z"/>
		<path id="path1_fill_1_" class="st0" d="M0,85.3C0,38.2,38.2,0,85.3,0h85.3v170.7H85.3C38.2,170.7,0,132.4,0,85.3z"/>
		<path id="path2_fill" class="st0" d="M170.7,0H256c47.1,0,85.3,38.2,85.3,85.3s-38.2,85.3-85.3,85.3h-85.3V0z"/>
		<path id="path3_fill" class="st0" d="M341.3,256c0,47.1-38.2,85.3-85.3,85.3s-85.3-38.2-85.3-85.3s38.2-85.3,85.3-85.3
			S341.3,208.9,341.3,256z"/>
	</g>
</g>
<g id="Capa_1">
</g>
</svg>
