<?xml version="1.0" encoding="utf-8"?>
<!-- Generator: Adobe Illustrator 24.3.0, SVG Export Plug-In . SVG Version: 6.00 Build 0)  -->
<svg version="1.1" xmlns="http://www.w3.org/2000/svg" xmlns:xlink="http://www.w3.org/1999/xlink" x="0px" y="0px"
	 viewBox="0 0 82.97 80.98" style="enable-background:new 0 0 82.97 80.98;" xml:space="preserve">
<style type="text/css">
	.st0{fill:#FFE9C6;}
	.st1{fill:#3C3C3B;}
	.st2{fill:#F2D3AC;}
	.st3{fill:none;stroke:#000000;stroke-width:0.25;stroke-linecap:round;stroke-linejoin:round;stroke-miterlimit:10;}
	.st4{fill:none;stroke:#F2D3AC;stroke-width:0.25;stroke-linecap:round;stroke-linejoin:round;stroke-miterlimit:10;}
	.st5{fill:#EB5955;stroke:#EB5955;stroke-width:0.5;stroke-linecap:round;stroke-linejoin:round;stroke-miterlimit:10;}
	.st6{fill:#904F25;}
	.st7{fill:none;stroke:#3C3C3B;stroke-width:0.25;stroke-linecap:round;stroke-miterlimit:10;}
</style>
<g id="Calque_1">
</g>
<g id="Calque_2">
	<g>
		<g>
			<path class="st0" d="M50.88,21.4c-0.19,0-0.37,0.04-0.55,0.1l-0.74-1.45c-1.32-1.79-3.03-2.86-5-3.48l-0.59-2.29l-0.52,1.99
				c-1.75-0.4-3.68-0.52-5.71-0.52c-4.21,0-8,0.08-10.67,2.93c0,0-1.2,1.5-1.81,2.89c-0.23-0.1-0.46-0.17-0.71-0.17
				c-1.33,0-2.4,1.54-2.4,3.44s1.08,3.44,2.4,3.44c0.25,0,0.49-0.07,0.72-0.18c0,0.01,0,0.01,0.01,0.02
				c0.05-0.01,0.11-0.01,0.16-0.02c0.2-0.03,0.41-0.07,0.62-0.09c0.26-0.03,0.53-0.04,0.79-0.04c4.71,0,8.53,3.82,8.53,8.53
				c0,1.83-0.58,3.52-1.56,4.9c-0.46,0.85-1.06,1.65-1.76,2.41c-1.55,1.74-3.5,3.44-5.26,5.16c0.07,0.14,0.15,0.29,0.22,0.43
				c0.13,0.23,0.26,0.45,0.4,0.67c0.11,0.18,0.22,0.35,0.33,0.52c0.14,0.22,0.29,0.44,0.44,0.64c0.22,0.3,0.44,0.59,0.67,0.87
				c0.16,0.2,0.33,0.38,0.5,0.57c0.13,0.14,0.25,0.28,0.38,0.41c0.17,0.18,0.34,0.35,0.52,0.52c0.2,0.19,0.41,0.36,0.61,0.53
				c0.23,0.19,0.46,0.37,0.7,0.54c0.09,0.07,0.19,0.14,0.28,0.21c0,0,0-0.01,0.01-0.01c1.78,1.21,3.77,1.91,5.87,1.91
				c3.19,0,6.12-1.57,8.45-4.19c0.05,0.03,0.1,0.06,0.14,0.09c-1.63-1.19-2.71-3.1-2.71-5.27c0-0.32,0.03-0.63,0.08-0.94
				c0.27-3.65,1.97-8.64,3.31-12.1c1.1-2.36,2.3-4.13,3.13-6.29c0.23,0.1,0.46,0.17,0.71,0.17c1.33,0,2.4-1.54,2.4-3.44
				S52.21,21.4,50.88,21.4z"/>
			<path class="st0" d="M26.24,49.56c0.07-0.07,0.15-0.15,0.22-0.22C26.39,49.41,26.31,49.48,26.24,49.56L26.24,49.56z"/>
		</g>
		<path class="st1" d="M67.21,50.8c-0.56-1.17-1.53-2.12-2.7-2.66c-3.42-1.59-6.77-0.33-8.46,2.16c-0.26,0.54-0.6,1.03-0.99,1.48
			c-0.01,0.01-0.01,0.02-0.02,0.02c-0.39,0.43-0.83,0.81-1.32,1.13c-0.03,0.02-0.05,0.03-0.08,0.05c-0.21,0.13-0.43,0.25-0.66,0.36
			c-0.04,0.02-0.08,0.04-0.12,0.06c-0.25,0.11-0.51,0.21-0.78,0.29c-0.04,0.01-0.07,0.02-0.11,0.03c-0.23,0.06-0.46,0.12-0.7,0.15
			c-0.07,0.01-0.14,0.02-0.22,0.03c-0.28,0.04-0.56,0.06-0.85,0.06c-0.34,0-0.67-0.03-1-0.08c-0.05-0.01-0.11-0.01-0.16-0.02
			c-0.32-0.06-0.64-0.14-0.94-0.24c-0.03-0.01-0.05-0.02-0.08-0.03c-0.65-0.23-1.25-0.56-1.79-0.97c-2.33,2.62-5.26,4.19-8.45,4.19
			c-2.11,0-4.09-0.7-5.87-1.91c0,0,0,0.01-0.01,0.01c-0.1-0.07-0.19-0.14-0.28-0.21c-0.24-0.17-0.47-0.35-0.7-0.54
			c-0.21-0.17-0.41-0.35-0.61-0.53c-0.18-0.17-0.35-0.34-0.52-0.52c-0.13-0.13-0.26-0.27-0.38-0.41c-0.17-0.19-0.34-0.37-0.5-0.57
			c-0.23-0.28-0.45-0.57-0.67-0.87c-0.15-0.21-0.29-0.43-0.44-0.64c-0.11-0.17-0.22-0.35-0.33-0.52c-0.14-0.22-0.27-0.44-0.4-0.67
			c-0.08-0.14-0.15-0.29-0.23-0.43c-2.15,2.11-3.99,4.26-4.36,6.56c0,0-0.43,3.28,1.39,4.95c1.67,1.53,4.52,2.37,4.98,2.41
			c0.05,0.02,0.08,0.03,0.08,0.03s11.12,3.74,11.32,10.99c0.14,0.13,0.27,0.24,0.38,0.31c0.57,0.08,1.15,0.14,1.74,0.14
			c5.19,0,9.63-3.15,11.54-7.64c0.71-3.67,3.94-6.44,7.82-6.44c2.26,0,4.93-2.31,4.93-2.31l-0.04-0.02
			C68.03,56.09,68.5,53.47,67.21,50.8z"/>
		<path class="st2" d="M37.73,39.61c-0.95,0-1.88-0.14-2.78-0.4c-0.27,0.78-0.64,1.52-1.1,2.19c-0.19,0.33,2.65,1.79,4.56,1.79
			c2.58,0,4.95-1.36,6.85-3.62c0.67-2.57,0.92-2.96,1.74-5.07C44.62,37.66,41.35,39.61,37.73,39.61z"/>
		<ellipse cx="32.16" cy="23.84" rx="0.58" ry="1.17"/>
		<g>
			<path class="st3" d="M34.24,24.01c0,0-1.31-0.43-2.29-0.43c-0.89,0-1.87,0.43-1.87,0.43"/>
			<line class="st4" x1="34.24" y1="23.09" x2="33.69" y2="22.57"/>
			<line class="st4" x1="34.24" y1="24.76" x2="33.69" y2="25.59"/>
		</g>
		<ellipse class="st2" cx="37.73" cy="30" rx="1.17" ry="0.39"/>
		<path class="st5" d="M38.84,33.65C38.37,32.96,37.71,34,37.71,34s-0.62-1.04-1.08-0.35c-0.47,0.69,1.04,1.41,1.04,1.41
			S39.31,34.34,38.84,33.65z"/>
		<path d="M71.12,42.98c-1.37-6.92-6.09-13.03-9.15-15.35c-3.87-2.57-6.43-6.93-6.55-11.89l-0.05-0.1c0-0.08,0.01-0.16,0.01-0.24
			C55.39,4.33,46.26,0,43.67,0c-1.06,0-2.06,0.26-2.95,0.71c-0.01,0-0.02,0-0.02,0v0.01c-0.34,0.17-0.66,0.38-0.96,0.6
			c-0.34-0.2-0.7-0.37-1.08-0.5V0.71c-0.09,0-0.18,0.01-0.27,0.01c-0.62-0.19-1.27-0.3-1.95-0.3c-4.57,0-9.78,5.94-11.12,8.85
			c-3.79,5.55-8.35,17.04-12.49,27.04C10.26,42.55,6.8,46.18,6.88,52c0.02,0.5,1.24,3.7-1.3,7.66C2.99,62.24,0.9,68.2,1.56,73.35
			c0.46,3.58,2.92,6.53,6.53,6.53c1.64,0,3.52-0.52,4.87-1.48c0.37-0.37,1.6-1.86,3.11-1.86c1.61,0,2.19,0.94,3.23,2.13
			c1.28,1.35,3.55,2.32,5.48,2.32c3.61,0,15.46-6.88,15.46-6.88c0-7.37-11.33-11.18-11.33-11.18s-0.03-0.01-0.08-0.03
			c-0.47-0.04-3.32-0.88-4.98-2.41c-1.83-1.67-1.39-4.95-1.39-4.95c0.66-4.17,6.17-7.84,9.62-11.72c0.7-0.76,1.3-1.56,1.76-2.41
			c0.98-1.39,1.56-3.08,1.56-4.9c0-4.71-3.82-8.53-8.53-8.53c-0.54,0-1.07,0.06-1.58,0.15c0,0,0-0.01,0-0.01
			c-0.23,0.1-0.46,0.17-0.72,0.17c-1.33,0-2.4-1.54-2.4-3.44s1.08-3.44,2.4-3.44c0.25,0,0.48,0.07,0.71,0.17
			c0.61-1.38,1.81-2.89,1.81-2.89c2.68-2.84,6.46-2.93,10.67-2.93c2.03,0,3.96,0.12,5.71,0.52l0.52-1.99l0.59,2.29
			c1.98,0.62,3.69,1.69,5,3.48l0.74,1.45c0.18-0.06,0.36-0.1,0.55-0.1c1.33,0,2.4,1.54,2.4,3.44s-1.08,3.44-2.4,3.44
			c-0.25,0-0.48-0.07-0.71-0.17c-0.83,2.16-2.03,3.93-3.13,6.29c-1.34,3.45-3.04,8.45-3.31,12.1c-0.04,0.31-0.08,0.62-0.08,0.94
			c0,3.61,2.92,6.53,6.53,6.53c2.58,0,4.8-1.5,5.86-3.67c1.69-2.48,5.04-3.75,8.46-2.16c1.18,0.55,2.14,1.49,2.7,2.66
			c1.29,2.67,0.82,5.29-0.61,7.14l0.04,0.02c2.91-2.68,4.74-6.52,4.74-10.79C71.38,46.6,71.4,44.37,71.12,42.98z"/>
		<path d="M27.82,20.88c0,0,1.02-0.41,2.31-0.54c1.29-0.14,5.93-0.08,5.93-0.08s0.37-1.2-0.65-1.25c-1.01-0.05-4.93-0.05-5.44,0.19
			C29.48,19.44,27.82,20.88,27.82,20.88z"/>
		<g>
			<path class="st6" d="M32.16,20.15c2.03,0,3.69,1.65,3.69,3.69s-1.65,3.69-3.69,3.69c-2.03,0-3.69-1.65-3.69-3.69
				S30.12,20.15,32.16,20.15 M32.16,19.4c-2.45,0-4.44,1.99-4.44,4.44c0,2.45,1.99,4.44,4.44,4.44c2.45,0,4.44-1.99,4.44-4.44
				C36.59,21.39,34.61,19.4,32.16,19.4L32.16,19.4z"/>
		</g>
		<ellipse cx="43.68" cy="23.84" rx="0.58" ry="1.17"/>
		<g>
			<path class="st3" d="M41.6,24.01c0,0,1.31-0.43,2.29-0.43c0.89,0,1.87,0.43,1.87,0.43"/>
			<line class="st4" x1="41.6" y1="23.09" x2="42.15" y2="22.57"/>
			<line class="st4" x1="41.6" y1="24.76" x2="42.15" y2="25.59"/>
		</g>
		<path d="M48.02,20.88c0,0-1.02-0.41-2.31-0.54c-1.29-0.14-5.93-0.08-5.93-0.08s-0.37-1.2,0.65-1.25c1.01-0.05,4.93-0.05,5.44,0.19
			C46.37,19.44,48.02,20.88,48.02,20.88z"/>
		<g>
			<path class="st6" d="M43.68,20.15c2.03,0,3.69,1.65,3.69,3.69s-1.65,3.69-3.69,3.69c-2.03,0-3.69-1.65-3.69-3.69
				S41.65,20.15,43.68,20.15 M43.68,19.4c-2.45,0-4.44,1.99-4.44,4.44c0,2.45,1.99,4.44,4.44,4.44s4.44-1.99,4.44-4.44
				C48.12,21.39,46.13,19.4,43.68,19.4L43.68,19.4z"/>
		</g>
		<circle cx="51.15" cy="27.18" r="0.81"/>
		<path class="st4" d="M51.15,23.95c0.45,0,0.81,0.36,0.81,0.81c0,0.45-0.36,0.81-0.81,0.81"/>
		<path class="st4" d="M24.22,23.95c-0.45,0-0.81,0.36-0.81,0.81c0,0.45,0.36,0.81,0.81,0.81"/>
		<circle cx="24.35" cy="27.18" r="0.81"/>
		<path class="st7" d="M36.41,43.2c0,0-4.95-2.77-12.73,0C15.57,46.09,12.65,62.06,3.4,55.83c-7.22-4.86-1.11-15.14,5-19.59
			s9.63-12.4,9.63-12.4"/>
		<path class="st7" d="M50.77,10.13c0,0,1.81,9.17,8.34,9.59s23.2-3.33,22.64,5.56c0,0-1.11,9.31-17.23,14.45s-9.31,17.05,5.56,9.85
			s12.64,2.26,12.64,2.26"/>
		<path class="st7" d="M50.37,28.28c0,0,3.88,13.94,13.88,13.8c10-0.14,13.48,0.98,13.61,5.35s-9.03,10.34-9.31,15.07
			c-0.28,4.72,4.22,6.04,6.67,3.47c2.78-2.92,6.39-1.94,5.97,1.94c-0.42,3.89-0.42,3.89-0.42,3.89"/>
	</g>
</g>
</svg>
