<?xml version="1.0" encoding="utf-8"?>
<!-- Generator: Adobe Illustrator 25.0.1, SVG Export Plug-In . SVG Version: 6.00 Build 0)  -->
<svg version="1.1" id="Calque_1" xmlns="http://www.w3.org/2000/svg" xmlns:xlink="http://www.w3.org/1999/xlink" x="0px" y="0px"
	 viewBox="0 0 168.6 171" style="enable-background:new 0 0 168.6 171;" xml:space="preserve">
<style type="text/css">
	.st0{display:none;}
	.st1{display:inline;}
	.st2{fill:none;stroke:#000000;stroke-width:0.5;stroke-miterlimit:10;}
	.st3{fill:none;}
	.st4{fill:#C6E3D8;}
	.st5{fill:url(#SVGID_1_);}
	.st6{fill:url(#SVGID_2_);}
	.st7{fill:url(#SVGID_3_);}
	.st8{fill:none;stroke:#C6E3D8;stroke-width:0.5;stroke-miterlimit:10;}
	.st9{fill:url(#SVGID_4_);}
	.st10{fill:url(#SVGID_5_);}
	.st11{fill:url(#SVGID_6_);}
	.st12{fill:url(#SVGID_7_);}
	.st13{fill:#3C3C3B;}
	.st14{fill:#FFFFFF;}
	.st15{fill:none;stroke:#000000;stroke-width:0.9171;stroke-miterlimit:10;}
	.st16{fill:none;stroke:#000000;stroke-miterlimit:10;}
	.st17{fill:none;stroke:#000000;stroke-width:1;stroke-miterlimit:10.0003;}
	.st18{fill:none;stroke:#000000;stroke-linecap:round;stroke-miterlimit:10;}
	.st19{fill:#B0C9EA;}
	.st20{fill:url(#SVGID_8_);}
	.st21{fill:url(#SVGID_9_);}
	.st22{fill:none;stroke:#000000;stroke-linecap:round;stroke-linejoin:round;stroke-miterlimit:10;}
	.st23{fill:none;stroke:#3C3C3B;stroke-miterlimit:10;}
	.st24{fill:none;stroke:#F4A49E;stroke-linecap:round;stroke-miterlimit:10;}
	.st25{font-family:'ArialMT';}
	.st26{font-size:12px;}
</style>
<g id="Calque_1_1_" class="st0">
	
		<image style="display:inline;overflow:visible;enable-background:new    ;" width="4608" height="3456" xlink:href="2FB1DF9EA2672972.jpeg"  transform="matrix(-0.1699 0 0 -0.1699 -126.9096 301.6457)">
	</image>
	<g class="st1">
		<g>
			<g>
				<line class="st2" x1="-756.5" y1="-148.9" x2="-756.5" y2="301.8"/>
			</g>
			<g>
				<line class="st2" x1="-706.5" y1="-148.9" x2="-706.5" y2="301.8"/>
			</g>
			<g>
				<line class="st2" x1="-656.5" y1="-148.9" x2="-656.5" y2="301.8"/>
			</g>
			<g>
				<line class="st2" x1="-606.5" y1="-148.9" x2="-606.5" y2="301.8"/>
			</g>
			<g>
				<line class="st2" x1="-556.5" y1="-148.9" x2="-556.5" y2="301.8"/>
			</g>
			<g>
				<line class="st2" x1="-506.5" y1="-148.9" x2="-506.5" y2="301.8"/>
			</g>
			<g>
				<line class="st2" x1="-456.5" y1="-148.9" x2="-456.5" y2="301.8"/>
			</g>
			<g>
				<line class="st2" x1="-406.5" y1="-148.9" x2="-406.5" y2="301.8"/>
			</g>
			<g>
				<line class="st2" x1="-356.5" y1="-148.9" x2="-356.5" y2="301.8"/>
			</g>
			<g>
				<line class="st2" x1="-306.5" y1="-148.9" x2="-306.5" y2="301.8"/>
			</g>
		</g>
		<g>
			<g>
				<line class="st2" x1="-307" y1="-148.6" x2="-756.5" y2="-148.6"/>
			</g>
			<g>
				<line class="st2" x1="-307" y1="-98.6" x2="-756.5" y2="-98.6"/>
			</g>
			<g>
				<line class="st2" x1="-307" y1="-48.6" x2="-756.5" y2="-48.6"/>
			</g>
			<g>
				<line class="st2" x1="-307" y1="1.4" x2="-756.5" y2="1.4"/>
			</g>
			<g>
				<line class="st2" x1="-307" y1="51.4" x2="-756.5" y2="51.4"/>
			</g>
			<g>
				<line class="st2" x1="-307" y1="101.4" x2="-756.5" y2="101.4"/>
			</g>
			<g>
				<line class="st2" x1="-307" y1="151.4" x2="-756.5" y2="151.4"/>
			</g>
			<g>
				<line class="st2" x1="-307" y1="201.4" x2="-756.5" y2="201.4"/>
			</g>
			<g>
				<line class="st2" x1="-307" y1="251.4" x2="-756.5" y2="251.4"/>
			</g>
			<g>
				<line class="st2" x1="-307" y1="301.4" x2="-756.5" y2="301.4"/>
			</g>
		</g>
	</g>
</g>
<g>
	<ellipse class="st3" cx="83.9" cy="63.2" rx="26" ry="35.8"/>
</g>
<g>
	<g>
		<path class="st4" d="M108.4,37.5c0.7-1,9.5,0,12.2,4c0,0,0.6,1,1.3,1.9s4.9,6.4,5.8,10.4c0.9,4,2,7,2.6,7.9s1,5.8,0.9,6.6
			c-0.1,0.8-0.9,0.3-1.7,0.5c-0.9,0.3-3.1,1.9-6.6,1.3c-2.3-0.4-1.4,0.9-2.3,0.6s-5.2-4-8.8-10.9c0,0-1.3-3.9-2.7-9.7
			s-0.7-6.2-0.9-8C107.9,40.2,107.4,38.9,108.4,37.5z"/>
		<g>
			
				<linearGradient id="SVGID_1_" gradientUnits="userSpaceOnUse" x1="107.8094" y1="649.9081" x2="131.2459" y2="649.9081" gradientTransform="matrix(1 0 0 1 0 -596)">
				<stop  offset="0" style="stop-color:#FFFFFF;stop-opacity:0"/>
				<stop  offset="2.390000e-02" style="stop-color:#EDEDED;stop-opacity:2.389425e-03"/>
				<stop  offset="9.430000e-02" style="stop-color:#BBBBBB;stop-opacity:9.433836e-03"/>
				<stop  offset="0.1703" style="stop-color:#8F8F8F;stop-opacity:1.700000e-02"/>
				<stop  offset="0.2502" style="stop-color:#686868;stop-opacity:2.500000e-02"/>
				<stop  offset="0.3348" style="stop-color:#484848;stop-opacity:3.350000e-02"/>
				<stop  offset="0.4256" style="stop-color:#2E2E2E;stop-opacity:4.260000e-02"/>
				<stop  offset="0.525" style="stop-color:#191919;stop-opacity:5.250000e-02"/>
				<stop  offset="0.6374" style="stop-color:#0B0B0B;stop-opacity:6.370000e-02"/>
				<stop  offset="0.7736" style="stop-color:#030303;stop-opacity:7.740000e-02"/>
				<stop  offset="1" style="stop-color:#000000;stop-opacity:0.1"/>
			</linearGradient>
			<path class="st5" d="M108.4,37.5c0.7-1,9.5,0,12.2,4c0,0,0.6,1,1.3,1.9s4.9,6.4,5.8,10.4c0.9,4,2,7,2.6,7.9s1,5.8,0.9,6.6
				c-0.1,0.8-0.9,0.3-1.7,0.5c-0.9,0.3-3.1,1.9-6.6,1.3c-2.3-0.4-1.4,0.9-2.3,0.6s-5.2-4-8.8-10.9c0,0-1.3-3.9-2.7-9.7
				s-0.7-6.2-0.9-8C107.9,40.2,107.4,38.9,108.4,37.5z"/>
		</g>
		<path class="st4" d="M135.7,22.8c0,0,10-7.3,14.2,1.8s-3.5,30.9-3.5,30.9s-2.1-0.5-2.3-6.8s-0.7-6.7-3.2-10.8s-1.3-6.8-2.2-9
			S135.7,22.8,135.7,22.8z"/>
		<g>
			
				<linearGradient id="SVGID_2_" gradientUnits="userSpaceOnUse" x1="135.72" y1="633.7755" x2="151.1568" y2="633.7755" gradientTransform="matrix(1 0 0 1 0 -596)">
				<stop  offset="0" style="stop-color:#FFFFFF;stop-opacity:0"/>
				<stop  offset="2.390000e-02" style="stop-color:#EDEDED;stop-opacity:2.389425e-03"/>
				<stop  offset="9.430000e-02" style="stop-color:#BBBBBB;stop-opacity:9.433836e-03"/>
				<stop  offset="0.1703" style="stop-color:#8F8F8F;stop-opacity:1.700000e-02"/>
				<stop  offset="0.2502" style="stop-color:#686868;stop-opacity:2.500000e-02"/>
				<stop  offset="0.3348" style="stop-color:#484848;stop-opacity:3.350000e-02"/>
				<stop  offset="0.4256" style="stop-color:#2E2E2E;stop-opacity:4.260000e-02"/>
				<stop  offset="0.525" style="stop-color:#191919;stop-opacity:5.250000e-02"/>
				<stop  offset="0.6374" style="stop-color:#0B0B0B;stop-opacity:6.370000e-02"/>
				<stop  offset="0.7736" style="stop-color:#030303;stop-opacity:7.740000e-02"/>
				<stop  offset="1" style="stop-color:#000000;stop-opacity:0.1"/>
			</linearGradient>
			<path class="st6" d="M135.7,22.8c0,0,10-7.3,14.2,1.8s-3.5,30.9-3.5,30.9s-2.1-0.5-2.3-6.8s-0.7-6.7-3.2-10.8s-1.3-6.8-2.2-9
				S135.7,22.8,135.7,22.8z"/>
		</g>
		<path class="st4" d="M138.4,77.3c0,0,4.1-0.6,7.8,3.7c3.6,4.3,4.5,5.2,5.9,6.9c1.4,1.7,3.2,5.6,2.1,10.5c-1.2,4.9-4.3,7.3-4.3,7.3
			s-2.3-1-2.9-1s-1.9-0.3-2.8-0.8s-5.3-0.3-6.7-2.4c-1.4-2.2-4.4-14.8-3.6-18.4S135.6,78.2,138.4,77.3z"/>
		<g>
			
				<linearGradient id="SVGID_3_" gradientUnits="userSpaceOnUse" x1="133.7922" y1="687.4686" x2="154.5291" y2="687.4686" gradientTransform="matrix(1 0 0 1 0 -596)">
				<stop  offset="0" style="stop-color:#FFFFFF;stop-opacity:0"/>
				<stop  offset="7.380247e-03" style="stop-color:#F6F6F6;stop-opacity:7.380247e-04"/>
				<stop  offset="4.770000e-02" style="stop-color:#C8C8C8;stop-opacity:4.767627e-03"/>
				<stop  offset="9.310000e-02" style="stop-color:#9D9D9D;stop-opacity:9.308982e-03"/>
				<stop  offset="0.1419" style="stop-color:#777777;stop-opacity:1.420000e-02"/>
				<stop  offset="0.195" style="stop-color:#575757;stop-opacity:1.950000e-02"/>
				<stop  offset="0.2537" style="stop-color:#3B3B3B;stop-opacity:2.540000e-02"/>
				<stop  offset="0.32" style="stop-color:#252525;stop-opacity:3.200000e-02"/>
				<stop  offset="0.3974" style="stop-color:#141414;stop-opacity:3.970000e-02"/>
				<stop  offset="0.4931" style="stop-color:#090909;stop-opacity:4.930000e-02"/>
				<stop  offset="0.6274" style="stop-color:#020202;stop-opacity:6.270000e-02"/>
				<stop  offset="1" style="stop-color:#000000;stop-opacity:0.1"/>
			</linearGradient>
			<path class="st7" d="M138.4,77.3c0,0,4.1-0.6,7.8,3.7c3.6,4.3,4.5,5.2,5.9,6.9c1.4,1.7,3.2,5.6,2.1,10.5
				c-1.2,4.9-4.3,7.3-4.3,7.3s-2.3-1-2.9-1s-1.9-0.3-2.8-0.8s-5.3-0.3-6.7-2.4c-1.4-2.2-4.4-14.8-3.6-18.4S135.6,78.2,138.4,77.3z"
				/>
		</g>
		<path class="st4" d="M130.9,65.9c0,0-3-0.4-5.7,2.7s-3.3,3.7-4.3,5c-1,1.2-2.4,4.1-1.5,7.6c0.8,3.6,3.1,5.3,3.1,5.3
			s1.7-0.7,2.1-0.7c0.4,0.1,1.4-0.2,2.1-0.5c0.7-0.3,3.9-0.2,4.9-1.8c1-1.6,3.3-10.8,2.7-13.4C133.6,67.6,132.9,66.6,130.9,65.9z"/>
		<path class="st4" d="M130.6,41.4c0,0,3.1,0.1,7.4,5.6c4.3,5.5,4.4,7.3,5.3,8.1c0.9,0.8,1.9,4.8,1.4,4.8c-0.9,0-3.6-1.2-4.4-1.6
			s-4-0.3-5.4-2.5S130.6,44.1,130.6,41.4z"/>
		<path class="st4" d="M127.9,114.7c0,0,1.7-1.2,6.4-0.1s5.4,2.1,6.3,2.2c0.9,0.1,3,1.8,2.8,2c-0.5,0.4-2.4,0.8-3.1,1
			s-2.3,1.5-4,0.9S129.1,116.1,127.9,114.7z"/>
		<path class="st4" d="M153.6,43.8c0,0,0.5-2,4.9-4.1s5.6-1.8,6.3-2.3c0.7-0.5,3.5-0.5,3.4-0.2c-0.1,0.6-1.4,2.2-1.8,2.7
			c-0.4,0.5-0.8,2.7-2.5,3.2C162.2,43.7,155.3,44.1,153.6,43.8z"/>
		<path class="st4" d="M148.5,90.5c-1.2,0.2-6.7-6.7-5.8-11.4c0,0,0.2-1.1,0.4-2.2c0.2-1.1,1-8,3.2-11.5c2.2-3.5,3.5-6.4,3.7-7.5
			s3.4-4.8,4-5.3s0.8,0.4,1.6,0.8s3.5,0.9,5.6,3.8c1.4,1.9,1.6,0.3,2,1.2s0.9,6.5-1.5,13.9c0,0-1.8,3.7-4.9,8.8s-3.9,4.9-5,6.3
			S150.3,90.2,148.5,90.5z"/>
		<path class="st4" d="M111.2,98.5c0,0,2.9-3.4,6.8-4.6c3.9-1.2,9.8-0.7,11.5-1.1c1.7-0.4,4.8-1.6,6.6-0.2s1.8,4.9,1.4,6.2
			c-0.4,1.3-10.3,9.5-14.7,10.1C118.4,109.5,106.8,110.7,111.2,98.5z"/>
	</g>
	<path class="st8" d="M145.5,51.8c0,0,4.2,5.1-7.1,25.5s-16.2,36.5-18,50.1"/>
	<path class="st8" d="M144,65.5c5.3-14.9,9.9-22.2,9.9-22.2"/>
	<path class="st8" d="M131.2,68.3c0,0,7.1,16.2,4,37.3s-4.6,30.9-4.6,30.9"/>
	<g>
		<path class="st4" d="M0.8,65.6c0.3-1.1,7.7-2.9,11.2-0.5c0,0,0.8,0.6,1.6,1.2s6,3.7,8,6.7s3.8,5.1,4.6,5.6
			c0.8,0.5,2.6,4.4,2.8,5.1c0.1,0.7-0.6,0.5-1.2,0.9s-2,2.5-5,3.1c-2,0.4-0.8,1.2-1.7,1.2s-5.5-1.6-10.5-6.2c0,0-2.3-2.8-5.3-7.1
			S2.7,70.8,2,69.4C1.3,68,0.4,67.1,0.8,65.6z"/>
		<g>
			
				<linearGradient id="SVGID_4_" gradientUnits="userSpaceOnUse" x1="0.6857" y1="672.4417" x2="28.995" y2="672.4417" gradientTransform="matrix(1 0 0 1 0 -596)">
				<stop  offset="0" style="stop-color:#FFFFFF;stop-opacity:0"/>
				<stop  offset="2.390000e-02" style="stop-color:#EDEDED;stop-opacity:2.389425e-03"/>
				<stop  offset="9.430000e-02" style="stop-color:#BBBBBB;stop-opacity:9.433836e-03"/>
				<stop  offset="0.1703" style="stop-color:#8F8F8F;stop-opacity:1.700000e-02"/>
				<stop  offset="0.2502" style="stop-color:#686868;stop-opacity:2.500000e-02"/>
				<stop  offset="0.3348" style="stop-color:#484848;stop-opacity:3.350000e-02"/>
				<stop  offset="0.4256" style="stop-color:#2E2E2E;stop-opacity:4.260000e-02"/>
				<stop  offset="0.525" style="stop-color:#191919;stop-opacity:5.250000e-02"/>
				<stop  offset="0.6374" style="stop-color:#0B0B0B;stop-opacity:6.370000e-02"/>
				<stop  offset="0.7736" style="stop-color:#030303;stop-opacity:7.740000e-02"/>
				<stop  offset="1" style="stop-color:#000000;stop-opacity:0.1"/>
			</linearGradient>
			<path class="st9" d="M0.8,65.6c0.3-1.1,7.7-2.9,11.2-0.5c0,0,0.8,0.6,1.6,1.2s6,3.7,8,6.7s3.8,5.1,4.6,5.6
				c0.8,0.5,2.6,4.4,2.8,5.1c0.1,0.7-0.6,0.5-1.2,0.9s-2,2.5-5,3.1c-2,0.4-0.8,1.2-1.7,1.2s-5.5-1.6-10.5-6.2c0,0-2.3-2.8-5.3-7.1
				S2.7,70.8,2,69.4C1.3,68,0.4,67.1,0.8,65.6z"/>
		</g>
		<path class="st4" d="M18.5,45.2c0,0,5.9-9.1,12.1-2.9s6.7,26.3,6.7,26.3s-1.8,0.2-4-4.8s-2.6-5.2-6-7.8s-3.2-5.2-4.6-6.6
			C21.3,47.8,18.5,45.2,18.5,45.2z"/>
		<path class="st4" d="M37.7,88.8c0,0,3.2-1.7,7.5,0.6s5.3,2.8,7,3.8c1.7,1,4.4,3.6,4.9,7.9s-1.2,7.3-1.2,7.3s-2.2-0.1-2.6,0.1
			s-1.7,0.3-2.5,0.3c-0.9-0.1-4.4,1.4-6.2,0.1S36.3,98.1,35.8,95C35.3,91.8,35.7,90.4,37.7,88.8z"/>
		<g>
			
				<linearGradient id="SVGID_5_" gradientUnits="userSpaceOnUse" x1="35.6222" y1="694.7931" x2="57.1545" y2="694.7931" gradientTransform="matrix(1 0 0 1 0 -596)">
				<stop  offset="0" style="stop-color:#FFFFFF;stop-opacity:0"/>
				<stop  offset="2.390000e-02" style="stop-color:#EDEDED;stop-opacity:2.389425e-03"/>
				<stop  offset="9.430000e-02" style="stop-color:#BBBBBB;stop-opacity:9.433836e-03"/>
				<stop  offset="0.1703" style="stop-color:#8F8F8F;stop-opacity:1.700000e-02"/>
				<stop  offset="0.2502" style="stop-color:#686868;stop-opacity:2.500000e-02"/>
				<stop  offset="0.3348" style="stop-color:#484848;stop-opacity:3.350000e-02"/>
				<stop  offset="0.4256" style="stop-color:#2E2E2E;stop-opacity:4.260000e-02"/>
				<stop  offset="0.525" style="stop-color:#191919;stop-opacity:5.250000e-02"/>
				<stop  offset="0.6374" style="stop-color:#0B0B0B;stop-opacity:6.370000e-02"/>
				<stop  offset="0.7736" style="stop-color:#030303;stop-opacity:7.740000e-02"/>
				<stop  offset="1" style="stop-color:#000000;stop-opacity:0.1"/>
			</linearGradient>
			<path class="st10" d="M37.7,88.8c0,0,3.2-1.7,7.5,0.6s5.3,2.8,7,3.8c1.7,1,4.4,3.6,4.9,7.9s-1.2,7.3-1.2,7.3s-2.2-0.1-2.6,0.1
				s-1.7,0.3-2.5,0.3c-0.9-0.1-4.4,1.4-6.2,0.1S36.3,98.1,35.8,95C35.3,91.8,35.7,90.4,37.7,88.8z"/>
		</g>
		<path class="st4" d="M28,81.9c0,0-2.6,0.6-3.8,4s-1.6,4.1-2,5.4s-0.7,4.1,1.1,6.7s4.2,3.4,4.2,3.4s1.1-1.1,1.5-1.2
			s1.1-0.6,1.5-1.1c0.4-0.4,3.1-1.3,3.4-2.9s-0.7-9.8-2-11.8C30.7,82.4,29.9,81.8,28,81.9z"/>
		<path class="st4" d="M20.1,62c0,0,2.5-0.9,7.8,2.3c5.2,3.2,5.8,4.6,6.8,5s3,3.3,2.7,3.5c-0.7,0.3-3.3,0.1-4.1,0.1
			c-0.9-0.1-3.4,1-5.2-0.4S21,64.1,20.1,62z"/>
		<path class="st4" d="M40.8,122.6c0,0,1-1.6,5.2-2c4.2-0.5,5.1,0.1,5.8-0.1s3,0.5,2.9,0.8c-0.3,0.5-1.7,1.4-2.2,1.8
			c-0.5,0.3-1.4,2-3,2S42.1,123.4,40.8,122.6z"/>
		<path class="st4" d="M39.6,56.7c0,0-0.2-1.8,2.7-4.9s4-3.2,4.4-3.8s2.7-1.5,2.7-1.3c0.1,0.5-0.4,2.2-0.6,2.8
			c-0.2,0.6,0.1,2.4-1,3.4C46.6,54,41.1,56.5,39.6,56.7z"/>
		<g>
			
				<linearGradient id="SVGID_6_" gradientUnits="userSpaceOnUse" x1="39.5667" y1="647.7372" x2="49.4402" y2="647.7372" gradientTransform="matrix(1 0 0 1 0 -596)">
				<stop  offset="0" style="stop-color:#FFFFFF;stop-opacity:0"/>
				<stop  offset="2.390000e-02" style="stop-color:#EDEDED;stop-opacity:2.389425e-03"/>
				<stop  offset="9.430000e-02" style="stop-color:#BBBBBB;stop-opacity:9.433836e-03"/>
				<stop  offset="0.1703" style="stop-color:#8F8F8F;stop-opacity:1.700000e-02"/>
				<stop  offset="0.2502" style="stop-color:#686868;stop-opacity:2.500000e-02"/>
				<stop  offset="0.3348" style="stop-color:#484848;stop-opacity:3.350000e-02"/>
				<stop  offset="0.4256" style="stop-color:#2E2E2E;stop-opacity:4.260000e-02"/>
				<stop  offset="0.525" style="stop-color:#191919;stop-opacity:5.250000e-02"/>
				<stop  offset="0.6374" style="stop-color:#0B0B0B;stop-opacity:6.370000e-02"/>
				<stop  offset="0.7736" style="stop-color:#030303;stop-opacity:7.740000e-02"/>
				<stop  offset="1" style="stop-color:#000000;stop-opacity:0.1"/>
			</linearGradient>
			<path class="st11" d="M39.6,56.7c0,0-0.2-1.8,2.7-4.9s4-3.2,4.4-3.8s2.7-1.5,2.7-1.3c0.1,0.5-0.4,2.2-0.6,2.8
				c-0.2,0.6,0.1,2.4-1,3.4C46.6,54,41.1,56.5,39.6,56.7z"/>
		</g>
		<path class="st4" d="M50,96.4c-1,0.5-7.5-3.4-8.2-7.6c0,0-0.2-1-0.3-2c-0.2-1-1.6-6.8-0.9-10.4c0.7-3.5,0.9-6.3,0.7-7.3
			c-0.2-1,1.3-5,1.7-5.5c0.4-0.6,0.8,0.1,1.5,0.2c0.8,0.1,3.2-0.4,5.7,1.4c1.7,1.2,1.4-0.2,2,0.4s2.7,5,3.1,11.8
			c0,0-0.3,3.6-1.3,8.7c-1,5.2-1.7,5.2-2.1,6.7S51.3,95.7,50,96.4z"/>
		<g>
			
				<linearGradient id="SVGID_7_" gradientUnits="userSpaceOnUse" x1="47.7702" y1="692.4697" x2="47.7702" y2="659.4928" gradientTransform="matrix(1 0 0 1 0 -596)">
				<stop  offset="0" style="stop-color:#FFFFFF;stop-opacity:0"/>
				<stop  offset="2.390000e-02" style="stop-color:#EDEDED;stop-opacity:2.389425e-03"/>
				<stop  offset="9.430000e-02" style="stop-color:#BBBBBB;stop-opacity:9.433836e-03"/>
				<stop  offset="0.1703" style="stop-color:#8F8F8F;stop-opacity:1.700000e-02"/>
				<stop  offset="0.2502" style="stop-color:#686868;stop-opacity:2.500000e-02"/>
				<stop  offset="0.3348" style="stop-color:#484848;stop-opacity:3.350000e-02"/>
				<stop  offset="0.4256" style="stop-color:#2E2E2E;stop-opacity:4.260000e-02"/>
				<stop  offset="0.525" style="stop-color:#191919;stop-opacity:5.250000e-02"/>
				<stop  offset="0.6374" style="stop-color:#0B0B0B;stop-opacity:6.370000e-02"/>
				<stop  offset="0.7736" style="stop-color:#030303;stop-opacity:7.740000e-02"/>
				<stop  offset="1" style="stop-color:#000000;stop-opacity:0.1"/>
			</linearGradient>
			<path class="st12" d="M50,96.4c-1,0.5-7.5-3.4-8.2-7.6c0,0-0.2-1-0.3-2c-0.2-1-1.6-6.8-0.9-10.4c0.7-3.5,0.9-6.3,0.7-7.3
				c-0.2-1,1.3-5,1.7-5.5c0.4-0.6,0.8,0.1,1.5,0.2c0.8,0.1,3.2-0.4,5.7,1.4c1.7,1.2,1.4-0.2,2,0.4s2.7,5,3.1,11.8
				c0,0-0.3,3.6-1.3,8.7c-1,5.2-1.7,5.2-2.1,6.7S51.3,95.7,50,96.4z"/>
		</g>
		<path class="st4" d="M22,114.6c0,0,1.3-3.7,4.1-5.9s7.8-3.6,9-4.4s3.5-2.8,5.3-2.2c1.8,0.6,3,3.4,3.1,4.6s-5.4,11-8.8,12.8
			S22.2,125.9,22,114.6z"/>
	</g>
	<path class="st8" d="M35.5,65.8c0,0,5.1,2.9,2.1,23s-1.8,34.8,0.9,46.5"/>
	<path class="st8" d="M38.6,77.4c-0.3-13.8,1.2-21.2,1.2-21.2"/>
	<path class="st8" d="M29,83.7c0,0,10.8,11,14.8,29.2s5.8,26.6,5.8,26.6"/>
</g>
<g>
	<path class="st13" d="M-527.5,218.1c48.2,0,88.1-35.9,94.2-82.5c-5.7-28.8-24.4-53-49.8-66c-8.9,21.8-25.9,36.5-45.4,36.5
		c-19,0-35.5-13.9-44.6-34.8c-25.5,14.4-43.6,40.1-47.6,70.3C-612.1,185.2-573.7,218.1-527.5,218.1z"/>
</g>
<g>
	<path class="st14" d="M-528.5,105.6c-18.1,0-34.5-12.7-44-34.1c14-7.8,29.9-11.9,46-11.9c15,0,29.4,3.4,42.7,10.2
		C-493,91.9-510.1,105.6-528.5,105.6z"/>
	<path d="M-526.5,60.1c14.8,0,29,3.3,42.1,9.9c-9.1,21.7-26,35.1-44.1,35.1c-8.9,0-17.7-3.2-25.4-9.4c-7.3-5.8-13.5-14.1-18-24
		C-558,64.1-542.4,60.1-526.5,60.1 M-526.5,59.1c-16.9,0-32.8,4.4-46.6,12.2c9.1,20.8,25.7,34.8,44.6,34.8
		c19.5,0,36.5-14.7,45.4-36.6C-496.2,62.9-510.9,59.1-526.5,59.1L-526.5,59.1z"/>
</g>
<ellipse class="st15" cx="-528.5" cy="7.6" rx="52" ry="71.5"/>
<g>
	<ellipse class="st14" cx="-528.5" cy="7.6" rx="51.5" ry="71"/>
	<path d="M-528.5-62.9c28.1,0,51,31.6,51,70.5s-22.9,70.5-51,70.5s-51-31.6-51-70.5S-556.7-62.9-528.5-62.9 M-528.5-63.9
		c-28.7,0-52,32-52,71.5s23.3,71.5,52,71.5s52-32,52-71.5S-499.8-63.9-528.5-63.9L-528.5-63.9z"/>
</g>
<path class="st13" d="M-471-48.4c-7.8-13.3-24-39.5-57.5-39.5c-6.6,0-12.7,1.1-18,3.1c0-0.4,0-0.7,0-1.1c0-18.2-14.8-33-33-33
	s-33,14.8-33,33c0,15.7,11,28.9,25.8,32.2c-36.2,65.2-5.8,137.8,13.6,135.1s14.5-15.4,14.5-15.4c-21.9-24.2-22.2-55.4-21.1-69.4
	c10.5-0.9,30.7-5.6,45.7-27.7l-8.9,27.9c0,0,22.1-24.9,24.5-36.6c0,0,4.2,23.7,41.3,36.5c0,0,0.1,0,0.1,0
	c1.1,14.1,0.6,45.1-21.1,69.1c0,0-4.9,12.7,14.5,15.4C-464.2,84.1-433.4,16-471-48.4z"/>
<circle class="st13" cx="-559.5" cy="19.1" r="4"/>
<circle class="st13" cx="-504.5" cy="20.1" r="4"/>
<circle class="st16" cx="-555" cy="19.6" r="16"/>
<ellipse transform="matrix(0.7071 -0.7071 0.7071 0.7071 -161.7095 -350.1639)" class="st17" cx="-503.5" cy="20.1" rx="16" ry="16"/>
<path class="st18" d="M-518.5,51.1c0,4.4-3.6,8-8,8s-8-3.6-8-8"/>
<line class="st16" x1="-539.5" y1="20.1" x2="-519.5" y2="20.1"/>
<g>
	<polygon class="st16" points="-658.2,88.5 -687,-21.4 -699.8,32.8 -745.7,-17.8 -730.8,52.1 -786.2,37.9 -733.4,98.5 -801,120.8 
		-712.7,132.6 	"/>
	<polygon class="st16" points="-664.8,94.5 -684.1,20.5 -692.8,57 -723.7,22.9 -713.7,70 -751,60.5 -715.4,101.2 -761,116.3 
		-701.5,124.2 	"/>
</g>
<g>
	<path class="st13" d="M-529.9,553.2c0.5,0,1,0,1.5,0c0.5,0,1,0,1.5,0H-529.9z"/>
	<path class="st13" d="M-528.4,553.2c-60.7,0.9-115.8-28.4-150.4-48.7v37c33.3,19.8,85.4,45.7,146.6,47.1h7.5
		c61.2-1.4,113.3-27.2,146.6-47.1v-37C-412.6,524.8-467.7,554.2-528.4,553.2z"/>
</g>
<g>
	<path d="M-698,181c1.5,0,3.1,0.1,4.8,0.5c2.9,0.6,7.7,3.2,14.2,6.9v32.6c-7.9-5-13.6-8.7-16.5-9.8c-5.8-2.2-11.3-2.8-15.6-2.8
		c-5.2,0-8.7,0.9-8.7,0.9l26.5-15.8c-3.9-2.6-10.9-3.2-16-3.2c-3.6,0-6.3,0.3-6.3,0.3S-709.9,181-698,181 M-698,180
		c-12.3,0-18.1,9.8-18.4,10.2l-1,1.7l2-0.2c0,0,2.7-0.3,6.2-0.3c4.4,0,10.2,0.4,14,2.2l-25.1,14.9l-6.1,3.6l6.8-1.8
		c0,0,3.4-0.9,8.4-0.9c5.3,0,10.4,0.9,15.2,2.7c2.6,0.9,7.4,4,14.1,8.3l2.2,1.4l1.5,1v-1.8v-32.6v-0.6l-0.5-0.3
		c-6.5-3.8-11.5-6.4-14.5-7.1C-694.7,180.2-696.4,180-698,180L-698,180z"/>
</g>
<path class="st16" d="M-363.6,193.6c6.7-4.5,22.3-2.9,22.3-2.9s-7.1-12.3-22.3-9.2c-2.9,0.6-7.8,3.2-14.5,7.1v32.6
	c8.1-5.1,13.8-8.9,16.8-10c13-4.8,24.2-1.9,24.2-1.9L-363.6,193.6z"/>
<g>
	<path d="M-677.5,197.1c1.9,1.1,3.9,2.3,6,3.6c14.9,8.8,35.2,20.9,59.4,30.9c28.7,11.9,56.1,17.9,81.7,17.9c0.8,0,1.7,0,2.5,0
		c0.8,0,1.7,0,2.5,0c25.5,0,53-6,81.7-17.9c24.2-10,44.6-22.1,59.4-30.9c2-1.2,3.9-2.3,5.8-3.4v30.4c-23.9,15.2-79.1,50-146,51.5
		h-6.7c-66.9-1.5-122.3-36.4-146.3-51.7V197.1 M-678.5,195.4V228c27.2,17.2,81.3,50.6,147.3,52.1h6.7c65.8-1.5,119.8-34.6,147-51.9
		v-32.7c-27.4,16-84,53-147.9,53c-0.8,0-1.7,0-2.5,0c-0.8,0-1.7,0-2.5,0C-594.5,248.5-651.2,211.3-678.5,195.4L-678.5,195.4z"/>
</g>
<path class="st13" d="M-529.8,241.5c0.5,0,0.9,0,1.4,0c0.5,0,0.9,0,1.4,0H-529.8z"/>
<g>
	<g>
		<path class="st19" d="M16.2,128.7c-6.5-1.3-9.6,3.9-9.6,3.9s6.7-0.7,9.6,1.2l-11.4,6.8c0,0,4.8-1.3,10.4,0.8
			c1.3,0.5,3.7,2,7.1,4.2v-14C19.5,130,17.5,128.9,16.2,128.7z"/>
	</g>
	<g>
		
			<linearGradient id="SVGID_8_" gradientUnits="userSpaceOnUse" x1="4.83" y1="733.0524" x2="22.33" y2="733.0524" gradientTransform="matrix(1 0 0 1 0 -596)">
			<stop  offset="0" style="stop-color:#FFFFFF;stop-opacity:0"/>
			<stop  offset="0.1205" style="stop-color:#FBFBFB;stop-opacity:1.200000e-02"/>
			<stop  offset="0.2454" style="stop-color:#EEEEEE;stop-opacity:2.450000e-02"/>
			<stop  offset="0.3724" style="stop-color:#DADADA;stop-opacity:3.720000e-02"/>
			<stop  offset="0.5008" style="stop-color:#BCBCBC;stop-opacity:5.010000e-02"/>
			<stop  offset="0.6304" style="stop-color:#979797;stop-opacity:6.300000e-02"/>
			<stop  offset="0.761" style="stop-color:#696969;stop-opacity:7.610000e-02"/>
			<stop  offset="0.8898" style="stop-color:#343434;stop-opacity:8.900000e-02"/>
			<stop  offset="1" style="stop-color:#000000;stop-opacity:0.1"/>
		</linearGradient>
		<path class="st20" d="M16.2,128.7c-6.5-1.3-9.6,3.9-9.6,3.9s6.7-0.7,9.6,1.2l-11.4,6.8c0,0,4.8-1.3,10.4,0.8
			c1.3,0.5,3.7,2,7.1,4.2v-14C19.5,130,17.5,128.9,16.2,128.7z"/>
	</g>
</g>
<g>
	<g>
		<path class="st19" d="M154.8,133.9c2.9-1.9,9.6-1.2,9.6-1.2s-3.1-5.3-9.6-3.9c-1.2,0.2-3.4,1.4-6.2,3.1v14
			c3.5-2.2,5.9-3.8,7.2-4.3c5.6-2.1,10.4-0.8,10.4-0.8L154.8,133.9z"/>
	</g>
	<g>
		
			<linearGradient id="SVGID_9_" gradientUnits="userSpaceOnUse" x1="148.59" y1="733.0874" x2="166.2" y2="733.0874" gradientTransform="matrix(1 0 0 1 0 -596)">
			<stop  offset="0" style="stop-color:#000000;stop-opacity:0.1"/>
			<stop  offset="0.1102" style="stop-color:#343434;stop-opacity:8.900000e-02"/>
			<stop  offset="0.239" style="stop-color:#696969;stop-opacity:7.610000e-02"/>
			<stop  offset="0.3696" style="stop-color:#979797;stop-opacity:6.300000e-02"/>
			<stop  offset="0.4992" style="stop-color:#BCBCBC;stop-opacity:5.010000e-02"/>
			<stop  offset="0.6276" style="stop-color:#DADADA;stop-opacity:3.720000e-02"/>
			<stop  offset="0.7546" style="stop-color:#EEEEEE;stop-opacity:2.450000e-02"/>
			<stop  offset="0.8795" style="stop-color:#FBFBFB;stop-opacity:1.200000e-02"/>
			<stop  offset="1" style="stop-color:#FFFFFF;stop-opacity:0"/>
		</linearGradient>
		<path class="st21" d="M154.8,133.9c2.9-1.9,9.6-1.2,9.6-1.2s-3.1-5.3-9.6-3.9c-1.2,0.2-3.4,1.4-6.2,3.1v14
			c3.5-2.2,5.9-3.8,7.2-4.3c5.6-2.1,10.4-0.8,10.4-0.8L154.8,133.9z"/>
	</g>
</g>
<g>
	<path class="st19" d="M85.2,157.4c-28,0.4-52.8-15.9-64.7-22.8v14c11.7,7.4,34.9,21.7,63.2,22.4h2.9c28.2-0.6,51.4-14.9,63.1-22.3
		v-14C137.9,141.6,113.1,157.8,85.2,157.4z"/>
</g>
<g>
	<polygon class="st13" points="-658,111.4 -590.9,111.4 -652.5,66.6 -705.9,66.6 -713.6,110.9 	"/>
	<circle class="st16" cx="-628.5" cy="130.1" r="14"/>
	<circle class="st13" cx="-628.5" cy="130.1" r="7"/>
	<polygon class="st16" points="-602.4,112.5 -591.4,128.5 -606.2,132.1 -608.3,112.9 	"/>
	<g>
		<path d="M-664.8,111.6l65.5,0.1l-64.2,4.7L-664.8,111.6 M-666.1,110.6l1.9,6.9l72.8-5.4l0.1-1.4L-666.1,110.6L-666.1,110.6z"/>
	</g>
</g>
<g>
	<g>
		<circle class="st14" cx="-702.5" cy="138.1" r="13.5"/>
		<path d="M-702.5,125.1c7.2,0,13,5.8,13,13s-5.8,13-13,13s-13-5.8-13-13S-709.7,125.1-702.5,125.1 M-702.5,124.1
			c-7.7,0-14,6.3-14,14s6.3,14,14,14s14-6.3,14-14S-694.8,124.1-702.5,124.1L-702.5,124.1z"/>
	</g>
	<circle class="st13" cx="-702.5" cy="138.1" r="7"/>
	<g>
		<circle class="st14" cx="-666.5" cy="166.1" r="13.5"/>
		<path d="M-666.5,153.1c7.2,0,13,5.8,13,13s-5.8,13-13,13s-13-5.8-13-13S-673.7,153.1-666.5,153.1 M-666.5,152.1
			c-7.7,0-14,6.3-14,14s6.3,14,14,14s14-6.3,14-14S-658.8,152.1-666.5,152.1L-666.5,152.1z"/>
	</g>
	<polygon class="st16" points="-636.5,166.1 -636.5,185.5 -650.6,180.1 -641.5,163.1 	"/>
	<polygon class="st13" points="-699.5,110.7 -702.5,119.7 -686,130.4 -683,124.1 	"/>
	<g>
		<path d="M-682.7,125.7l49.9,42.5l-52-37.9L-682.7,125.7 M-683,124.1l-3,6.5l59,43l1-1L-683,124.1L-683,124.1z"/>
	</g>
	<g>
		<polygon class="st13" points="-705.3,105.3 -692.2,60.9 -654.7,84.4 -627.5,168.6 		"/>
		<path class="st14" d="M-691.9,61.7l36.9,23.1l26.6,82.4l-76.2-62.1L-691.9,61.7 M-692.5,60.1l-13.4,45.4l79.4,64.6l-27.7-86
			L-692.5,60.1L-692.5,60.1z"/>
	</g>
	<circle class="st13" cx="-666.5" cy="166.1" r="7"/>
</g>
<polygon class="st22" points="-656.5,-71.5 -631.5,-67.9 -645,-26.9 -631.5,-26.9 -646.5,33.5 -645,-16.9 -660.5,-14.9 "/>
<g>
	<g>
		<path class="st14" d="M-459.6,9.3c-2.4-19.9-9.2-39-19.4-54c-13.4-19.8-31-30.7-49.5-30.7c-18.5,0-36.1,10.9-49.5,30.7
			c-10.2,15-17,34.1-19.4,54V7.6c0-52.4,30.9-95,69-95s69,42.6,69,95L-459.6,9.3L-459.6,9.3z"/>
		<path d="M-528.5-86.9c36.3,0,66.1,39.3,68.3,88.7c-3.1-17.2-9.4-33.5-18.4-46.7c-13.5-19.9-31.2-30.9-49.9-30.9
			s-36.4,11-49.9,30.9c-9,13.2-15.3,29.5-18.4,46.7C-594.7-47.6-564.9-86.9-528.5-86.9 M-528.5-87.9c-38.4,0-69.5,42.8-69.5,95.5v18
			c0-52.7,31.1-100.5,69.5-100.5s69.5,47.8,69.5,100.5v-18C-459.1-45.1-490.2-87.9-528.5-87.9L-528.5-87.9z"/>
	</g>
	<g>
		<g>
			<path class="st14" d="M-598,40.6c-12.7-0.3-23-10.7-23-23.5s10.3-23.2,23-23.5V40.6z"/>
			<path d="M-598.5-5.9v46c-12.2-0.5-22-10.6-22-23S-610.8-5.3-598.5-5.9 M-597.5-6.9c-13.2,0-24,10.8-24,24s10.8,24,24,24V-6.9
				L-597.5-6.9z"/>
		</g>
		<g>
			<path class="st14" d="M-597,40.6v-47h3.5c1.4,0,2.5,1.1,2.5,2.5v42c0,1.4-1.1,2.5-2.5,2.5H-597z"/>
			<path d="M-593.5-5.9c1.1,0,2,0.9,2,2v42c0,1.1-0.9,2-2,2h-3v-46L-593.5-5.9 M-593.5-6.9h-4v48h4c1.7,0,3-1.3,3-3v-42
				C-590.5-5.6-591.9-6.9-593.5-6.9L-593.5-6.9z"/>
		</g>
	</g>
	<g>
		<g>
			<path class="st14" d="M-459-6.4c12.7,0.3,23,10.7,23,23.5s-10.3,23.2-23,23.5V-6.4z"/>
			<path d="M-458.5-5.9c12.2,0.5,22,10.6,22,23s-9.8,22.5-22,23V-5.9 M-459.5-6.9v48c13.2,0,24-10.8,24-24S-446.3-6.9-459.5-6.9
				L-459.5-6.9z"/>
		</g>
		<g>
			<path class="st14" d="M-463.5,40.6c-1.4,0-2.5-1.1-2.5-2.5v-42c0-1.4,1.1-2.5,2.5-2.5h3.5v47H-463.5z"/>
			<path d="M-460.5-5.9v46h-3c-1.1,0-2-0.9-2-2v-42c0-1.1,0.9-2,2-2L-460.5-5.9 M-459.5-6.9h-4c-1.7,0-3,1.3-3,3v42c0,1.7,1.3,3,3,3
				h4V-6.9L-459.5-6.9z"/>
		</g>
	</g>
</g>
<g>
	<path class="st13" d="M84.4,147.2c45.8,0,47.2-12,47.1-12c-0.8-14.5-12.2-29.5-24.9-36c-4.4,10.9-12.9,18.3-22.7,18.3
		c-9.5,0-17.8-7-22.3-17.4c-12.7,7.2-21.8,20.1-23.8,35.2C37.7,135.2,39.7,147.2,84.4,147.2z"/>
</g>
<g>
	<path class="st14" d="M68.2,93.1c-1.8,0.7-3.6,1.5-5.3,2.4c4.6,10,12.4,16,21,16c8.7,0,16.9-6.4,21.4-16.8
		c-1.7-0.8-3.4-1.5-5.1-2.1C95.5,97.4,89.9,100,84,100C78.2,100,72.8,97.6,68.2,93.1z"/>
	<path class="st13" d="M83.9,99c-5.8,0-11.2-2.6-15.5-7c-2.4,0.9-4.6,1.9-6.8,3.2c4.5,10.4,12.8,17.4,22.3,17.4
		c9.7,0,18.2-7.4,22.7-18.3c-2.1-1.1-4.4-2-6.7-2.8C95.5,96.2,90,99,83.9,99z M106,94.5c-4.6,10.8-13,17.5-22,17.5
		c-8.9,0-17-6.2-21.7-16.7c1.9-1.1,4-2,6-2.8c4.6,4.6,10,7,15.6,7c5.9,0,11.5-2.6,16.1-7.5C102.1,92.7,104.1,93.5,106,94.5z"/>
	<path class="st13" d="M84,99.5c-5.7,0-11.1-2.4-15.6-7c-2.1,0.8-4.1,1.7-6,2.8C67,105.8,75,112,84,112c9.1,0,17.5-6.7,22-17.5
		c-1.9-0.9-3.9-1.8-5.9-2.5C95.4,96.9,89.8,99.5,84,99.5z M100.2,92.6c1.8,0.6,3.5,1.3,5.1,2.1c-4.5,10.4-12.7,16.8-21.4,16.8
		c-8.6,0-16.4-6-21-16c1.7-0.9,3.5-1.7,5.3-2.4c4.6,4.5,10,6.9,15.8,6.9C89.9,100,95.5,97.4,100.2,92.6z"/>
</g>
<path class="st13" d="M112.7,35.2c-3.9-6.6-12-19.8-28.8-19.8c-3.3,0-6.3,0.6-9,1.5c0-0.2,0-0.4,0-0.5C74.9,7.4,67.6,0,58.4,0
	S41.9,7.4,41.9,16.5c0,7.9,5.5,14.5,12.9,16.1c-18.1,32.6-2.9,68.9,6.8,67.5c9.7-1.4,7.3-7.7,7.3-7.7C58,80.3,57.8,64.7,58.4,57.7
	c5.2-0.5,15.3-2.8,22.9-13.8l-4.4,14c0,0,11.1-12.5,12.2-18.3c0,0,2.1,11.8,20.6,18.3c0,0,0,0,0.1,0c0.6,7.1,0.3,22.6-10.6,34.6
	c0,0-2.4,6.3,7.3,7.7C116.1,101.5,131.5,67.4,112.7,35.2z"/>
<circle class="st13" cx="68.4" cy="69" r="2"/>
<circle class="st13" cx="95.9" cy="69.5" r="2"/>
<circle class="st23" cx="70.7" cy="69.2" r="8"/>
<circle class="st23" cx="96.4" cy="69.5" r="8"/>
<path class="st24" d="M88.9,85c0,2.2-1.8,4-4,4s-4-1.8-4-4"/>
<line class="st23" x1="78.4" y1="69.5" x2="88.4" y2="69.5"/>
<g>
	<g>
		<path d="M118.1,60c-3.9-21.8-18-38.5-34.2-38.5S53.7,38.2,49.8,60C51,35.5,65.9,16,83.9,16S116.9,35.5,118.1,60z"/>
		<path d="M83.9,16.5c16,0,29.4,15.5,32.9,36.2c-1.8-5.9-4.3-11.4-7.5-16.1C102.5,26.6,93.5,21,83.9,21s-18.5,5.6-25.4,15.7
			c-3.2,4.7-5.7,10.2-7.5,16.1C54.5,32,68,16.5,83.9,16.5 M83.9,15.5c-19.2,0-34.7,21.4-34.7,47.8v9C49.2,45.9,64.8,22,83.9,22
			s34.7,23.9,34.7,50.2v-9C118.7,36.9,103.1,15.5,83.9,15.5L83.9,15.5z"/>
	</g>
	<g>
		<g>
			<path d="M49,79.5c-6.1-0.3-11-5.3-11-11.5s4.9-11.2,11-11.5V79.5z"/>
			<path d="M48.5,57V79c-5.6-0.5-10-5.2-10-10.9S42.8,57.5,48.5,57 M49.5,56c-6.6,0-12,5.4-12,12s5.4,12,12,12V56L49.5,56z"/>
		</g>
		<g>
			<path d="M50,79.5v-23h1.5c0.5,0,1,0.5,1,1v21c0,0.6-0.5,1-1,1H50z"/>
			<path d="M51.5,57c0.3,0,0.5,0.2,0.5,0.5v21c0,0.3-0.2,0.5-0.5,0.5h-1V57H51.5 M51.5,56h-2v24h2c0.8,0,1.5-0.7,1.5-1.5v-21
				C53,56.7,52.3,56,51.5,56L51.5,56z"/>
		</g>
	</g>
	<g>
		<g>
			<path d="M118.9,56.5c6.1,0.3,11,5.3,11,11.5s-4.9,11.2-11,11.5V56.5z"/>
			<path d="M119.4,57c5.6,0.5,10,5.2,10,11s-4.4,10.4-10,10.9V57 M118.4,56v24c6.6,0,12-5.4,12-12S125.1,56,118.4,56L118.4,56z"/>
		</g>
		<g>
			<path d="M116.4,79.5c-0.6,0-1-0.4-1-1v-21c0-0.5,0.4-1,1-1h1.5v23H116.4z"/>
			<path d="M117.4,57v22h-1c-0.3,0-0.5-0.2-0.5-0.5v-21c0-0.3,0.2-0.5,0.5-0.5H117.4 M118.4,56h-2c-0.8,0-1.5,0.7-1.5,1.5v21
				c0,0.8,0.7,1.5,1.5,1.5h2V56L118.4,56z"/>
		</g>
	</g>
</g>
<g>
	<g>
		<path class="st13" d="M-447.6-56.3c1.8-2.2,21.5,0.7,27.4,9.9c0,0,1.4,2.3,2.8,4.4s10.8,14.8,12.6,24s4.1,16.1,5.5,18.2
			s1.9,13.2,1.6,15s-1.9,0.5-3.9,1.1c-1.9,0.5-7.2,4.1-15.2,2.5c-5.3-1.1-3.1,2-5.3,1.1s-11.6-9.3-19.2-25.4c0,0-2.8-8.9-5.6-22.3
			s-1.2-14.2-1.5-18.3C-448.9-50.1-450.1-53.1-447.6-56.3z"/>
		<path class="st13" d="M-384.6-87.9c0,0,23.1-16,32.1,5s-10,70-10,70s-4.7-1.3-4.9-15.6s-1.1-15.2-6.6-24.8
			c-5.5-9.6-2.5-15.6-4.5-20.6S-384.6-87.9-384.6-87.9z"/>
		<path class="st13" d="M-381.9,36.1c0,0,9.4-1,17.4,9s10,12,13,16s7,13,4,24s-10.2,16.2-10.2,16.2s-5.1-2.5-6.4-2.4
			c-1.3,0.1-4.3-0.9-6.3-1.9s-12-1-15-6s-9-34-7-42S-388.3,38.1-381.9,36.1z"/>
		<path class="st13" d="M-398.4,9.8c0,0-6.8-1.1-13.1,5.8c-6.3,6.9-7.8,8.3-10.2,11.1s-5.7,9.1-4,17.3s6.7,12.3,6.7,12.3
			s3.8-1.6,4.8-1.4s3.2-0.5,4.7-1.1c1.5-0.6,8.8-0.2,11.2-3.7c2.4-3.5,8.1-24.3,7-30.2S-393.8,11.5-398.4,9.8z"/>
		<path class="st13" d="M-397.5-45.9c0,0,7,0.4,16.5,13.2s9.5,16.8,11.5,18.8s4,11,3,11c-2,0-8-3-10-4c-2-1-9.1-1-12.1-6
			S-397.5-39.9-397.5-45.9z"/>
		<path class="st13" d="M-408.1,120.5c0,0,4-2.7,14.5,0.3s12.2,5.2,14.1,5.5c1.9,0.3,6.8,4.3,6.2,4.8c-1.1,0.8-5.6,1.7-7.1,2
			c-1.5,0.3-5.4,3.3-9.1,1.8C-393.1,133.3-405.6,123.8-408.1,120.5z"/>
		<path class="st13" d="M-345.4-39.2c0,0,1.3-4.6,11.4-9s12.7-3.8,14.4-4.8c1.6-1,8-1,7.8-0.3c-0.3,1.3-3.2,4.9-4.2,6.1
			s-2.1,6-5.9,7.2C-325.7-38.8-341.4-38.2-345.4-39.2z"/>
		<path class="st13" d="M-359.8,66.8c-2.8,0.3-14.7-15.7-12.3-26.4c0,0,0.6-2.6,1.1-5.1s2.9-18.1,8-25.9c5.2-7.8,8.5-14.3,9-16.8
			s8-10.7,9.5-11.7s1.8,1,3.5,2c1.8,1,8,2.2,12.5,9c3,4.5,3.6,0.8,4.5,2.9s1.6,14.8-4.3,31.5c0,0-4.3,8.3-11.8,19.7
			s-9.2,10.9-11.8,14C-354.6,63.3-355.8,66.3-359.8,66.8z"/>
		<path class="st13" d="M-445.3,82.6c0,0,6.8-7.7,15.8-10.1s22.4-0.9,26.2-1.7s11.1-3.2,15,0s3.9,11.2,2.9,14.2s-24,21-34,22
			S-456,110.1-445.3,82.6z"/>
	</g>
	<path class="st16" d="M-364.2-21.4c0,0,9.3,12-17.8,57.5s-39.1,82-44.1,112.8"/>
	<path class="st16" d="M-368.4,9.7c12.9-33.4,24-49.9,24-49.9"/>
	<path class="st16" d="M-397.7,15.2c0,0,15.1,37.2,6.6,85s-12.4,69.9-12.4,69.9"/>
</g>
<g>
	<path class="st13" d="M43.3,152l2,0.9l-0.7,1.5l0,0l1.7-1.1l2.4,1.1l-2.6,1.2l0.7,2.6l-2.2-1l-0.4-1.7h0l-0.6,1.3l-2-0.9L43.3,152z
		"/>
	<path class="st13" d="M49.5,157.9c-0.2,0.4,0.1,0.6,0.6,0.8c0.5,0.2,1.1,0.3,1.9,0.5l-0.8,0.8c-0.8-0.1-1.6-0.3-2.1-0.5
		c-1.3-0.5-2.1-1.2-1.6-2.7c0.5-1.2,1.6-1.5,3-0.9c1.9,0.8,2.2,1.5,1.6,2.9l-0.1,0.3L49.5,157.9z M51,157.6c0.1-0.4,0.1-0.6-0.3-0.8
		c-0.4-0.1-0.7-0.1-0.8,0.3L51,157.6z"/>
	<path class="st13" d="M54.6,159.9c-0.2,0.4,0.2,0.6,0.7,0.8c0.5,0.2,1.1,0.3,1.9,0.4l-0.7,0.8c-0.8-0.1-1.6-0.2-2.1-0.4
		c-1.3-0.5-2.2-1.1-1.7-2.6c0.4-1.2,1.5-1.6,3-1.1c2,0.7,2.2,1.4,1.7,2.8l-0.1,0.3L54.6,159.9z M56,159.5c0.1-0.4,0-0.6-0.4-0.7
		c-0.4-0.1-0.7-0.1-0.8,0.3L56,159.5z"/>
	<path class="st13" d="M58.4,158.9l1.9,0.6l-0.2,0.5h0c0.5-0.4,1-0.3,1.5-0.2c1.2,0.4,1.5,1.2,1.2,2.3c-0.4,1.2-1.1,1.7-2.4,1.3
		c-0.5-0.1-1-0.4-1.1-0.9h0l-0.4,1.3l-1.9-0.6L58.4,158.9z M59.7,161.3c-0.1,0.5,0,0.7,0.4,0.9s0.7,0,0.8-0.5c0.2-0.5,0-0.8-0.4-0.9
		C60.1,160.7,59.8,160.8,59.7,161.3z"/>
	<path class="st13" d="M70.4,163.5c-0.4-0.1-0.9-0.3-1.4-0.4c-0.7-0.1-1,0-1.1,0.4c-0.1,0.4,0.2,0.6,0.6,0.7
		c0.5,0.1,1.2,0.1,1.7,0.1l-0.3,1.2c-0.9,0-1.4,0-2.2-0.2c-1.4-0.3-2-1.1-1.8-2.4c0.3-1.4,1.5-1.6,2.7-1.3c1.1,0.2,1.7,0.5,2.1,0.6
		L70.4,163.5z"/>
	<path class="st13" d="M73.8,165.7L73.8,165.7c-0.3,0.4-0.9,0.4-1.4,0.4c-1.3-0.2-1.8-0.9-1.6-2.2c0.2-1.2,0.8-1.8,2.1-1.6
		c0.6,0.1,1,0.3,1.3,0.8h0l0.1-0.5l2,0.3l-0.5,3.6l-2-0.3L73.8,165.7z M72.8,164.4c-0.1,0.5,0.1,0.7,0.6,0.8s0.7-0.1,0.8-0.6
		c0.1-0.5-0.1-0.8-0.5-0.8C73.1,163.7,72.8,163.8,72.8,164.4z"/>
	<path class="st13" d="M76.9,162l2,0.2l-0.4,4.5l-2-0.2L76.9,162z"/>
	<path class="st13" d="M79.4,163.2l1.9,0v0.6h0c0.3-0.6,0.8-0.7,1.5-0.7c1,0,1.4,0.5,1.5,0.8h0c0.2-0.7,0.9-0.8,1.4-0.8
		c0.9,0,1.7,0.4,1.7,1.2l0,2.5l-2,0l0-1.9c0-0.2-0.1-0.4-0.5-0.4c-0.4,0-0.5,0.2-0.5,0.4l0,1.9l-2,0l0-1.9c0-0.2-0.1-0.4-0.5-0.4
		c-0.4,0-0.5,0.2-0.5,0.4l0,1.9l-2,0L79.4,163.2z"/>
	<path class="st13" d="M94.2,166L94.2,166c-0.2,0.5-0.8,0.6-1.3,0.7c-1.3,0.1-2-0.5-2.1-1.7c-0.1-1.2,0.3-1.9,1.6-2.1
		c0.6-0.1,1.1,0,1.4,0.5h0l-0.1-0.5l2-0.2l0.4,3.6l-2,0.2L94.2,166z M92.8,164.9c0.1,0.5,0.3,0.7,0.7,0.6s0.6-0.3,0.6-0.8
		c-0.1-0.5-0.3-0.7-0.7-0.7C92.9,164.2,92.7,164.4,92.8,164.9z"/>
	<path class="st13" d="M96.4,162.5l1.8-0.3l0.1,0.7h0c0.3-0.5,0.7-0.9,1.5-1c0.7-0.1,1.6-0.1,1.8,1.1l0.4,2.3l-2,0.4l-0.3-1.7
		c-0.1-0.4-0.3-0.5-0.6-0.5c-0.3,0.1-0.5,0.2-0.5,0.6l0.3,1.8l-2,0.4L96.4,162.5z"/>
	<path class="st13" d="M106,163.8L106,163.8c-0.1,0.5-0.7,0.7-1.2,0.9c-1.3,0.3-2-0.2-2.3-1.4c-0.3-1.2,0.1-2,1.3-2.3
		c0.6-0.1,1.1-0.1,1.5,0.2h0l-0.3-1.4l1.9-0.5l1.1,4.4l-1.9,0.5L106,163.8z M104.5,163c0.1,0.5,0.4,0.6,0.8,0.5
		c0.4-0.1,0.6-0.4,0.5-0.9c-0.1-0.5-0.4-0.7-0.8-0.6C104.5,162.2,104.3,162.4,104.5,163z"/>
	<path class="st13" d="M114.2,161.4L114.2,161.4c-0.1,0.5-0.6,0.8-1.1,0.9c-1.3,0.4-2,0-2.4-1.2c-0.4-1.1-0.1-2,1.1-2.4
		c0.5-0.2,1.1-0.2,1.5,0.1h0l-0.4-1.3l1.9-0.6l1.4,4.2l-1.9,0.6L114.2,161.4z M112.6,160.6c0.2,0.5,0.4,0.6,0.8,0.5
		c0.4-0.1,0.6-0.4,0.4-0.9c-0.2-0.5-0.4-0.6-0.9-0.5C112.6,159.9,112.4,160.1,112.6,160.6z"/>
	<path class="st13" d="M118.2,158.9c0.2,0.4,0.5,0.4,1,0.1c0.5-0.2,1-0.6,1.7-1l0,1.1c-0.6,0.5-1.3,0.9-1.9,1.1
		c-1.3,0.5-2.4,0.6-3-0.8c-0.5-1.2,0.1-2.2,1.6-2.8c1.9-0.8,2.6-0.4,3.1,1l0.1,0.3L118.2,158.9z M119,157.6
		c-0.1-0.4-0.4-0.5-0.8-0.3c-0.4,0.1-0.5,0.4-0.4,0.8L119,157.6z"/>
	<path class="st13" d="M120.2,155.7l2-0.9l1.4,1.9h0l-0.5-2.3l1.9-0.9l0.3,3.8l-2.6,1.2L120.2,155.7z"/>
</g>
<g>
	<path d="M-101.5,383.8c1.6,1,3.3,2,5.2,3c24.7,14.6,70.5,41.9,121.2,41.9c0.7,0,1.5,0,2.1,0c0.7,0,1.5,0,2.2,0
		c50.7,0,96.6-27.3,121.2-41.9c1.7-1,3.4-2,4.9-2.9V410c-20.6,13.1-68,42.9-125.4,44.2h-5.8c-57.5-1.3-105-31.3-125.6-44.4
		L-101.5,383.8 M-102.3,382.3v28c23.3,14.8,69.8,43.5,126.5,44.8h5.8c56.5-1.3,102.9-29.8,126.3-44.6v-28
		c-23.5,13.7-72.1,45.5-127,45.5c-0.7,0-1.4,0-2.2,0c-0.7,0-1.4,0-2.2,0C-30.2,427.9-78.9,396-102.3,382.3L-102.3,382.3z"/>
</g>
<path id="SVGID_x5F_10_x5F_" class="st3" d="M-102.7,401.2c23.8,13.8,73.4,46.5,129.4,45.6c55.8,0.9,105.3-31.6,129.2-45.5"/>
<text transform="matrix(0.8597 0.5109 -0.5109 0.8597 -97.4881 404.2886)" class="st25" style="font-size:12.0006px;"> </text>
<text transform="matrix(0.8626 0.5059 -0.5059 0.8626 -94.6324 406.008)" class="st13 st26" style="font-family:'AntiqueOliveStd-Nord';">K</text>
<text transform="matrix(0.8731 0.4875 -0.4875 0.8731 -83.9106 412.3006)" class="st13 st26" style="font-family:'AntiqueOliveStd-Nord';">e</text>
<text transform="matrix(0.8864 0.4629 -0.4629 0.8864 -74.231 417.7115)" class="st13 st26" style="font-family:'AntiqueOliveStd-Nord';">e</text>
<text transform="matrix(0.9018 0.4322 -0.4322 0.9018 -64.4054 422.8513)" class="st13 st26" style="font-family:'AntiqueOliveStd-Nord';">p</text>
<text transform="matrix(0.9139 0.4059 -0.4059 0.9139 -54.0749 427.7563)" class="st13 st26" style="font-family:'AntiqueOliveStd-Nord';"> </text>
<text transform="matrix(0.9253 0.3791 -0.3791 0.9253 -49.1748 429.9718)" class="st13" style="font-family:'AntiqueOliveStd-Nord'; font-size:11.9994px;">c</text>
<text transform="matrix(0.9413 0.3375 -0.3375 0.9413 -39.8416 433.8168)" class="st13 st26" style="font-family:'AntiqueOliveStd-Nord';">a</text>
<text transform="matrix(0.9535 0.3013 -0.3013 0.9535 -29.0581 437.6232)" class="st13 st26" style="font-family:'AntiqueOliveStd-Nord';">l</text>
<text transform="matrix(0.9691 0.2466 -0.2466 0.9691 -23.9896 439.4122)" class="st13 st26" style="font-family:'AntiqueOliveStd-Nord';">m</text>
<text transform="matrix(0.9827 0.1852 -0.1852 0.9827 -6.9786 443.5506)" class="st13 st26" style="font-family:'AntiqueOliveStd-Nord';"> </text>
<text transform="matrix(0.9907 0.1359 -0.1359 0.9907 -1.7065 444.6237)" class="st13 st26" style="font-family:'AntiqueOliveStd-Nord';">a</text>
<text transform="matrix(0.9981 6.190000e-02 -6.190000e-02 0.9981 9.6274 446.1895)" class="st13 st26" style="font-family:'AntiqueOliveStd-Nord';">n</text>
<text transform="matrix(0.9999 1.130041e-02 -1.130041e-02 0.9999 21.3706 446.7612)" class="st13" style="font-family:'AntiqueOliveStd-Nord'; font-size:11.9996px;">d</text>
<text transform="matrix(0.9988 -4.800227e-02 4.800227e-02 0.9988 33.13 446.7961)" class="st13" style="font-family:'AntiqueOliveStd-Nord'; font-size:11.9994px;"> </text>
<text transform="matrix(0.9946 -0.1041 0.1041 0.9946 38.5095 446.6264)" class="st13" style="font-family:'AntiqueOliveStd-Nord'; font-size:12.0004px;">d</text>
<text transform="matrix(0.9849 -0.1733 0.1733 0.9849 50.2075 445.3839)" class="st13 st26" style="font-family:'AntiqueOliveStd-Nord';">e</text>
<text transform="matrix(0.9724 -0.2332 0.2332 0.9724 61.1288 443.4519)" class="st13 st26" style="font-family:'AntiqueOliveStd-Nord';">v</text>
<text transform="matrix(0.9632 -0.2687 0.2687 0.9632 71.5796 440.8738)" class="st25 st26"> </text>
<text class="st25 st26"> </text>
<g>
	<polygon class="st16" points="459.9,-60.5 431.1,-170.4 418.2,-116.2 372.4,-166.8 387.3,-96.9 331.9,-111.1 384.7,-50.5 
		317.1,-28.2 405.4,-16.4 	"/>
	<polygon class="st16" points="453.3,-54.5 434,-128.5 425.3,-92 394.4,-126.1 404.5,-79 367.1,-88.6 402.7,-47.8 357.1,-32.7 
		416.6,-24.8 	"/>
</g>
</svg>
