<?xml version="1.0" encoding="utf-8"?>
<!-- Generator: Adobe Illustrator 25.0.1, SVG Export Plug-In . SVG Version: 6.00 Build 0)  -->
<svg version="1.1" id="Calque_1" xmlns="http://www.w3.org/2000/svg" xmlns:xlink="http://www.w3.org/1999/xlink" x="0px" y="0px"
	 viewBox="0 0 158.74 158.74" style="enable-background:new 0 0 158.74 158.74;" xml:space="preserve">
<style type="text/css">
	.st0{fill:#F9F8F6;}
	.st1{display:none;}
	.st2{display:inline;opacity:0.4;fill:#CBE1B3;enable-background:new    ;}
	.st3{display:inline;fill:none;stroke:#CBE1B3;stroke-miterlimit:10;}
	.st4{display:inline;fill:none;stroke:#009FE3;stroke-width:0.8;stroke-miterlimit:10;}
	.st5{display:inline;fill:none;stroke:#009FE3;stroke-width:0.4;stroke-miterlimit:10;}
	
		.st6{display:inline;opacity:0.4;fill:none;stroke:#009FE3;stroke-width:0.8;stroke-miterlimit:10;stroke-dasharray:3.2;enable-background:new    ;}
</style>
<g>
	<path class="st0" d="M61.19,49.28h1.83c1.61,0,2.39-0.07,2.61-0.24c0.04-0.02,0.11-0.08,0.11-0.41c0-0.7-0.49-1.52-1.88-1.52
		c-1.43,0-2.72,1.33-2.75,2.14C61.11,49.27,61.12,49.28,61.19,49.28z"/>
	<path class="st0" d="M109.17,72.93c-0.18-0.55-0.38-1.15-0.53-1.5c-0.11,0.23-0.32,0.74-0.55,1.39l-1.64,4.54
		c-0.05,0.15-0.14,0.39-0.1,0.43c0.04,0.05,0.33,0.05,0.56,0.05h3.2c0.27,0,0.52-0.01,0.58-0.1c0.06-0.08-0.02-0.35-0.1-0.58
		L109.17,72.93z"/>
	<path class="st0" d="M79.37,0C35.54,0,0,35.54,0,79.37s35.54,79.37,79.37,79.37s79.37-35.54,79.37-79.37S123.2,0,79.37,0z
		 M105.55,62.76l3.21-3.02c0.38-0.39,0.81-0.39,1.23,0l3.21,3.02v0.05c0,0.26-0.17,0.58-0.4,0.62l-0.03,0.01l-0.03-0.02l-3.02-1.54
		c-0.18-0.1-0.28-0.12-0.37-0.12s-0.18,0.03-0.38,0.12l-2.99,1.55c-0.29,0-0.45-0.31-0.44-0.62V62.76z M90.02,62.87l0.01-0.03
		l0.02-0.02l3.68-2.99c0.38-0.26,0.6-0.36,0.76-0.36c0.25,0,0.61,0.23,0.82,0.65c0.32,0.6,0.25,0.98,0.18,1.15l-0.01,0.03
		c-0.13,0.16-0.36,0.3-0.71,0.45l-4.39,1.89l-0.04-0.01c-0.11-0.03-0.2-0.11-0.27-0.23C90,63.23,89.98,63.04,90.02,62.87z
		 M84.49,85.03l0.03-0.02l0.9-0.08c1.38-0.12,1.52-0.42,1.52-3.16v-9.39c0-2.71-0.05-3.01-1.51-3.18l-0.46-0.07
		c-0.14-0.09-0.14-0.31-0.14-0.4c0.01-0.15,0.07-0.36,0.2-0.43l0.02-0.01h0.02c1.04,0.05,1.96,0.08,3.07,0.08h4.9
		c1.65,0,3.2,0,3.5-0.08l0.09-0.02l0.03,0.08c0.15,0.42,0.29,2.03,0.39,3.21l0.03,0.32l-0.02,0.03c-0.09,0.13-0.3,0.19-0.46,0.19
		c-0.15,0-0.28-0.04-0.35-0.13l-0.02-0.04l-0.05-0.16c-0.36-1.12-0.61-1.94-1.86-2.25c-0.54-0.13-1.39-0.15-2.5-0.15h-1.88
		c-0.68,0-0.68,0-0.68,0.94v5.22c0,0.63,0,0.63,0.76,0.63h1.52c1.11,0,1.89-0.05,2.18-0.15c0.25-0.08,0.43-0.18,0.56-0.83l0.21-1.1
		l0.01-0.02c0.08-0.1,0.23-0.15,0.4-0.15c0.2,0,0.36,0.08,0.43,0.2l0.02,0.02v0.03c0,0.28-0.02,0.63-0.05,1.03
		c-0.02,0.49-0.06,1.05-0.06,1.6c0,0.53,0.03,1.07,0.06,1.54c0.02,0.38,0.05,0.71,0.05,0.96v0.02l-0.02,0.03
		c-0.07,0.12-0.23,0.19-0.43,0.19c-0.18,0-0.33-0.06-0.41-0.15l-0.02-0.04l-0.24-1.02c-0.09-0.4-0.24-0.79-0.73-0.92
		c-0.37-0.11-1.04-0.13-1.98-0.13h-1.52c-0.76,0-0.76,0.01-0.76,0.6v3.68c0,1.36,0.07,2.23,0.46,2.64c0.27,0.27,0.76,0.57,3.08,0.57
		c1.91,0,2.71-0.1,3.29-0.38c0.48-0.27,1.17-1.23,1.8-2.49l0.03-0.04c0.07-0.05,0.17-0.08,0.27-0.08c0.2,0,0.43,0.1,0.53,0.31
		l0.01,0.03l-0.01,0.03c-0.19,0.92-0.84,2.93-1.18,3.64l-0.03,0.06h-0.07c-2.43-0.05-4.71-0.08-6.98-0.08h-2.35
		c-1.12,0-2.03,0.02-3.54,0.08H84.6l-0.02-0.01c-0.1-0.05-0.17-0.16-0.19-0.33C84.36,85.37,84.37,85.16,84.49,85.03z M70.52,53.71
		v-0.04l0.02-0.02c0.16-0.19,0.59-0.21,0.74-0.02l0.02,0.04c0.36,1.17,1.11,2.57,2.63,2.57c0.74,0,1.62-0.4,1.62-1.54
		c0-1.1-0.92-1.7-1.93-2.28c-1.35-0.77-2.6-1.7-2.6-3.25c0-1.81,1.45-3.03,3.6-3.03c1.07,0,2.07,0.26,2.33,0.49l0.03,0.04
		c0.25,0.62,0.42,1.46,0.42,2.12v0.03l-0.01,0.02c-0.09,0.15-0.29,0.22-0.46,0.22c-0.14,0-0.26-0.05-0.32-0.12l-0.02-0.03
		c-0.45-1.17-1.23-1.81-2.17-1.81c-0.94,0-1.55,0.58-1.55,1.47c0,0.95,0.96,1.5,1.81,1.98l0.12,0.07c1.36,0.77,2.68,1.67,2.68,3.55
		c0,2.08-1.97,3.03-3.8,3.03c-1.23,0-2.15-0.26-2.82-0.79l-0.03-0.04C70.62,55.85,70.47,54.57,70.52,53.71z M42.61,40.02
		c0.01-0.15,0.07-0.35,0.2-0.42l0.02-0.01h0.02c1.5,0.05,2.34,0.07,3.34,0.07c1.03,0,1.9-0.02,3.16-0.07h0.03l0.02,0.01
		c0.14,0.07,0.19,0.26,0.2,0.42c0.01,0.09,0.01,0.3-0.13,0.4l-0.05,0.02l-0.61,0.05c-1.42,0.12-1.48,0.42-1.48,3.14v8.94
		c0,1.6,0.08,2.25,0.52,2.71c0.29,0.29,0.82,0.56,2.73,0.56c2.15,0,2.69-0.1,3.09-0.32c0.53-0.32,1.18-1.3,1.65-2.49l0.03-0.04
		c0.08-0.07,0.19-0.08,0.28-0.08c0.21,0,0.53,0.1,0.53,0.31c0,0.33-0.74,2.97-1.09,3.64l-0.03,0.06h-0.06
		c-1.25-0.05-3.58-0.08-6.4-0.08h-2.36c-1.07,0-1.88,0.02-3.34,0.08h-0.03l-0.02-0.01c-0.1-0.05-0.16-0.17-0.19-0.33
		c-0.02-0.15,0-0.36,0.12-0.48l0.02-0.03l0.8-0.08c1.4-0.14,1.46-0.44,1.43-3.11v-9.26c0-2.71-0.05-3.02-1.58-3.14l-0.67-0.05
		l-0.02-0.02C42.61,40.32,42.61,40.11,42.61,40.02z M57.95,95.14c-0.29,1.08-0.47,3.16-0.39,3.93l0.01,0.03l-0.01,0.02
		c-0.08,0.17-0.29,0.22-0.45,0.22c-0.17,0-0.32-0.05-0.39-0.15l-0.02-0.02l-0.01-0.03c-0.11-0.96-0.33-1.64-0.61-1.83
		c-0.58-0.42-1.55-0.63-2.96-0.63h-1.85c-0.32,0-0.52,0-0.58,0.07c-0.07,0.07-0.07,0.28-0.07,0.63v11.68c0,2.73,0.05,3.04,1.47,3.16
		l0.88,0.1c0.14,0.1,0.14,0.32,0.13,0.41c-0.01,0.16-0.07,0.35-0.2,0.42l-0.02,0.01h-0.02c-1.55-0.05-2.39-0.07-3.41-0.07
		c-1.05,0-1.96,0.02-3.62,0.07h-0.02l-0.02-0.01c-0.13-0.07-0.18-0.25-0.19-0.39c-0.01-0.2,0.05-0.36,0.18-0.44l0.04-0.02l0.94-0.07
		c1.38-0.12,1.53-0.42,1.53-3.16V97.42c0-0.74,0-0.74-0.69-0.74h-1.43c-1.22,0-2.54,0.08-3.14,0.63c-0.62,0.57-0.88,1.15-1.15,1.76
		l-0.01,0.03l-0.02,0.01c-0.08,0.06-0.18,0.09-0.29,0.09c-0.23,0-0.46-0.13-0.55-0.31l-0.02-0.04l0.01-0.04
		c0.42-1.17,0.81-2.82,0.99-3.87l0.01-0.04l0.04-0.03c0.08-0.05,0.25-0.07,0.33-0.07c0.14,0,0.23,0.02,0.29,0.08l0.02,0.02
		l0.01,0.03c0.12,0.69,0.8,0.73,1.9,0.73h10.77c1.43,0,1.59-0.05,1.95-0.68l0.01-0.03l0.03-0.02c0.07-0.03,0.15-0.04,0.2-0.04
		c0.05,0,0.32,0.01,0.4,0.15l0.02,0.04L57.95,95.14z M58.4,67.86c-0.29,1.08-0.47,3.16-0.39,3.93l0.01,0.03l-0.02,0.03
		c-0.08,0.16-0.28,0.22-0.44,0.22c-0.17,0-0.32-0.06-0.4-0.15l-0.02-0.02l-0.01-0.03c-0.11-0.96-0.33-1.64-0.61-1.83
		c-0.58-0.43-1.55-0.64-2.97-0.64h-1.85c-0.32,0-0.52,0.01-0.59,0.08c-0.07,0.08-0.07,0.29-0.07,0.63v11.67
		c0,2.73,0.05,3.04,1.48,3.16l0.88,0.1c0.14,0.1,0.14,0.32,0.14,0.41c-0.01,0.15-0.07,0.35-0.2,0.41l-0.02,0.01h-0.02
		c-1.55-0.05-2.4-0.07-3.42-0.07c-1.05,0-1.96,0.02-3.62,0.07h-0.02l-0.02-0.01c-0.12-0.06-0.18-0.24-0.19-0.38
		c-0.01-0.2,0.06-0.36,0.18-0.44l0.04-0.02l0.94-0.07c1.38-0.12,1.52-0.42,1.52-3.16V70.12c0-0.74,0-0.74-0.68-0.74h-1.43
		c-1.22,0-2.54,0.08-3.14,0.63c-0.62,0.57-0.88,1.15-1.15,1.77l-0.01,0.02l-0.02,0.01c-0.08,0.06-0.17,0.09-0.29,0.09
		c-0.23,0-0.45-0.13-0.54-0.31l-0.02-0.04l0.01-0.04c0.42-1.18,0.8-2.83,0.99-3.86l0-0.04l0.04-0.02c0.08-0.05,0.25-0.07,0.34-0.07
		c0.14,0,0.23,0.02,0.29,0.08l0.02,0.02l0.01,0.03c0.13,0.7,0.81,0.73,1.9,0.73h10.77c1.42,0,1.59-0.05,1.95-0.68l0.01-0.03
		l0.03-0.02c0.07-0.03,0.14-0.04,0.2-0.04c0.05,0,0.32,0.01,0.4,0.15l0.02,0.04L58.4,67.86z M59.98,55.45
		c-0.91-1.18-1.1-2.51-1.1-3.4c0-3.37,2.26-5.91,5.27-5.91c2.35,0,3.75,1.61,3.75,3.16c0,0.4-0.07,0.61-0.11,0.71
		c-0.1,0.21-0.44,0.24-1.61,0.24h-4.76c-0.6,0-0.6,0-0.6,0.6c0,3.26,2.1,4.71,4.17,4.71c0.68,0,1.43-0.14,2.29-1.22l0.02-0.02
		l0.03-0.01c0.29-0.09,0.55,0.09,0.59,0.4l0.01,0.03l-0.01,0.02c-0.88,1.81-2.77,2.45-4.13,2.44
		C62.21,57.18,60.82,56.55,59.98,55.45z M77.14,113.2l-0.03,0.01c-0.25,0.09-0.68,0.14-1.17,0.14c-2.38,0-3.71-0.81-5.48-3.32
		c-0.34-0.49-0.77-1.18-1.24-1.91c-0.45-0.71-0.91-1.45-1.31-2.03c-0.36-0.52-0.73-0.79-1.77-0.79c-1.12,0-1.12,0.01-1.12,0.47v3.29
		c0,2.71,0.04,2.96,1.48,3.16l0.58,0.08l0.02,0.02c0.12,0.1,0.14,0.3,0.12,0.46c-0.02,0.17-0.1,0.31-0.2,0.36l-0.02,0.01h-0.02
		c-1.12-0.05-2.02-0.08-3.1-0.08c-1.14,0-2.09,0.03-3.26,0.08h-0.02l-0.02-0.01c-0.09-0.04-0.16-0.15-0.19-0.29
		c-0.03-0.14-0.02-0.37,0.1-0.51l0.03-0.03l0.69-0.08c1.43-0.17,1.48-0.43,1.48-3.16V99.7c0-2.53-0.11-2.83-1.06-2.95l-0.88-0.12
		c-0.12-0.08-0.19-0.26-0.17-0.45c0.01-0.17,0.1-0.31,0.21-0.37l0.04-0.01c1.61-0.14,3.46-0.21,5.82-0.21c1.45,0,3.11,0.1,4.4,0.79
		c1.01,0.52,2.21,1.6,2.21,3.74c0,2.86-2.49,4.1-3.3,4.43c-0.07,0.13,0.1,0.4,0.15,0.49c1.97,3.19,3.41,5.39,5.22,6.91
		c0.45,0.4,1.08,0.67,1.74,0.71l0.03,0.01c0.09,0.04,0.15,0.12,0.18,0.22C77.28,113.01,77.23,113.12,77.14,113.2z M74.24,85.86
		h-0.02l-0.02-0.01c-0.1-0.04-0.17-0.16-0.19-0.32c-0.03-0.15-0.02-0.37,0.11-0.49l0.03-0.02l0.53-0.08c1.5-0.25,1.5-0.41,1.5-3.16
		V78.1c0-0.71,0-0.73-1.2-0.73h-7.46c-1.2,0-1.2,0.02-1.2,0.73v3.68c0,2.75,0.13,3.01,1.51,3.16l0.8,0.1
		c0.14,0.1,0.14,0.32,0.14,0.41c-0.01,0.16-0.07,0.35-0.2,0.41l-0.02,0.01H68.5c-1.49-0.05-2.33-0.07-3.3-0.07
		c-0.71,0-1.34,0.02-1.95,0.04c-0.35,0.02-0.71,0.02-1.08,0.04h-0.02l-0.02-0.01c-0.1-0.04-0.17-0.16-0.2-0.32
		c-0.03-0.15-0.02-0.37,0.11-0.49l0.02-0.02l0.47-0.08c1.37-0.24,1.43-0.39,1.43-3.16v-9.39c0-2.7-0.18-3.09-1.45-3.18l-0.73-0.07
		c-0.14-0.09-0.14-0.3-0.14-0.39c0.01-0.15,0.07-0.36,0.2-0.43l0.03-0.01h0.02c0.48,0.02,0.89,0.02,1.29,0.04
		c0.66,0.02,1.28,0.04,1.99,0.04c1.07,0,1.98-0.03,3.02-0.08h0.02l0.03,0.01c0.13,0.07,0.19,0.27,0.2,0.43c0,0.09,0,0.3-0.14,0.39
		l-0.05,0.02l-0.49,0.05c-1.42,0.14-1.48,0.45-1.48,3.18v2.99c0,0.74,0,0.74,1.21,0.74h7.45c1.21,0,1.21,0,1.21-0.74v-2.99
		c0-2.73-0.05-3.04-1.5-3.18l-0.54-0.07c-0.14-0.09-0.14-0.3-0.14-0.39c0.01-0.15,0.07-0.36,0.2-0.43l0.02-0.01h0.02
		c1.18,0.05,2.07,0.08,3.15,0.08c1.05,0,1.95-0.03,3.07-0.08h0.02l0.03,0.01c0.13,0.07,0.19,0.27,0.2,0.43
		c0.01,0.18-0.04,0.33-0.14,0.39l-0.05,0.02l-0.54,0.05c-1.43,0.14-1.48,0.45-1.48,3.18v9.39c0,2.73,0.04,2.98,1.48,3.16l0.67,0.1
		c0.14,0.1,0.14,0.32,0.14,0.41c-0.01,0.15-0.07,0.35-0.2,0.41l-0.02,0.01l-0.02-0.01c-1.22-0.04-2.12-0.07-3.15-0.07
		C76.4,85.79,75.49,85.8,74.24,85.86z M92.17,109.43c-0.18,0.91-0.83,2.92-1.18,3.64l-0.03,0.06h-0.07
		c-2.43-0.05-4.71-0.07-6.98-0.07h-2.35c-1.12,0-2.03,0.02-3.54,0.07H78l-0.02-0.01c-0.1-0.05-0.16-0.16-0.19-0.32
		c-0.03-0.15-0.01-0.37,0.11-0.5l0.02-0.02l0.89-0.08c1.38-0.12,1.53-0.42,1.53-3.16v-9.39c0-2.71-0.05-3.02-1.51-3.18l-0.46-0.07
		c-0.14-0.09-0.15-0.3-0.14-0.39c0.01-0.15,0.07-0.36,0.2-0.43l0.02-0.01h0.02c1.08,0.05,1.96,0.08,3.07,0.08h4.9
		c1.64,0,3.2,0,3.49-0.07l0.09-0.02l0.03,0.08c0.14,0.41,0.28,1.89,0.39,3.09l0.04,0.44l-0.02,0.03c-0.09,0.13-0.3,0.19-0.46,0.19
		c-0.15,0-0.28-0.05-0.35-0.13l-0.02-0.04l-0.05-0.14c-0.36-1.13-0.61-1.95-1.86-2.26c-0.55-0.13-1.39-0.15-2.51-0.15h-1.88
		c-0.68,0-0.68,0-0.68,0.95v5.21c0,0.63,0,0.63,0.76,0.63h1.51c1.12,0,1.9-0.05,2.18-0.15c0.26-0.09,0.43-0.18,0.56-0.84l0.21-1.1
		l0.02-0.02c0.08-0.1,0.23-0.15,0.41-0.15c0.2,0,0.36,0.07,0.43,0.2l0.01,0.02v0.02c0,0.28-0.02,0.62-0.04,1.03
		c-0.02,0.49-0.06,1.05-0.06,1.6c0,0.52,0.03,1.07,0.06,1.54c0.02,0.38,0.04,0.71,0.04,0.96v0.02l-0.01,0.02
		c-0.07,0.12-0.23,0.19-0.43,0.19c-0.18,0-0.33-0.05-0.41-0.15l-0.02-0.04l-0.23-1.01c-0.09-0.4-0.24-0.79-0.74-0.92
		c-0.38-0.11-1.04-0.13-1.98-0.13h-1.51c-0.76,0-0.76,0.01-0.76,0.61v3.67c0,1.36,0.08,2.23,0.47,2.65
		c0.27,0.27,0.76,0.57,3.08,0.57c1.91,0,2.71-0.09,3.29-0.38c0.47-0.27,1.19-1.24,1.81-2.49l0.03-0.04
		c0.07-0.05,0.17-0.08,0.28-0.08c0.19,0,0.43,0.1,0.52,0.29l0.01,0.03L92.17,109.43z M100.58,113.49c-2.2,0-3.62-0.68-4.12-0.98
		l-0.02-0.01l-0.01-0.03c-0.34-0.61-0.67-2.52-0.71-3.69v-0.04l0.02-0.03c0.1-0.15,0.32-0.21,0.48-0.21c0.14,0,0.26,0.05,0.32,0.14
		l0.01,0.02c0.51,1.74,1.68,3.81,4.39,3.81c2.18,0,3.15-1.45,3.15-2.89c0-1.15-0.26-2.39-2.09-3.57l-2.48-1.62
		c-1.3-0.86-2.86-2.35-2.86-4.57c0-2.74,2.17-4.58,5.41-4.58c0.87,0,1.84,0.18,2.45,0.35c0.33,0.1,0.7,0.15,0.89,0.15h0.07
		l0.03,0.07c0.25,0.67,0.47,2.17,0.47,3.21v0.03l-0.01,0.02c-0.09,0.14-0.32,0.2-0.49,0.2c-0.14,0-0.26-0.04-0.32-0.12l-0.02-0.04
		c-0.37-1.33-1.08-2.87-3.45-2.87c-2.7,0-3,1.96-3,2.8c0,1.54,1.36,2.62,2.17,3.12l2.08,1.3c2.22,1.38,3.3,3.04,3.32,5.1
		C106.23,111.51,103.95,113.49,100.58,113.49z M114.31,113.31c-0.88,0-1.6-0.72-1.6-1.6s0.72-1.6,1.6-1.6s1.6,0.72,1.6,1.6
		S115.19,113.31,114.31,113.31z M117.61,85.84l-0.03,0.03h-0.04c-1.17-0.06-2.08-0.08-3.15-0.08c-0.93,0-1.73,0.03-2.37,0.05
		c-0.23,0.01-0.43,0.02-0.63,0.02h-0.02l-0.02-0.01c-0.13-0.06-0.22-0.21-0.23-0.39c-0.02-0.18,0.05-0.35,0.16-0.43l0.02-0.01
		l0.78-0.08c0.51-0.05,0.82-0.19,0.82-0.37c0-0.3-0.16-0.83-0.33-1.35l-1.15-3.54c-0.16-0.52-0.21-0.59-0.97-0.59h-3.93
		c-0.62,0-0.73,0.07-0.9,0.56l-0.91,2.74c-0.47,1.4-0.57,1.93-0.57,2.13c0,0.22,0.05,0.37,0.66,0.42l0.89,0.08l0.02,0.02
		c0.12,0.09,0.19,0.27,0.17,0.46c-0.02,0.17-0.11,0.31-0.24,0.36l-0.03,0.01h-0.02c-0.49-0.04-1.07-0.04-1.79-0.06
		c-0.27-0.01-0.58-0.01-0.91-0.01c-0.6,0-1.25,0.02-1.82,0.05c-0.24,0.01-0.47,0.02-0.68,0.02h-0.03l-0.03-0.01
		c-0.12-0.08-0.18-0.27-0.19-0.42c-0.01-0.17,0.04-0.32,0.12-0.39l0.03-0.02l0.89-0.08c0.72-0.06,1.18-0.43,1.48-1.21
		c0.14-0.36,0.32-0.78,0.51-1.26c0.43-1.07,1.02-2.53,1.79-4.55l2.66-7.04c0.36-0.93,0.51-1.41,0.44-1.8l-0.02-0.09l0.08-0.02
		c0.59-0.17,1.01-0.61,1.31-0.96l0.03-0.04h0.05c0.26,0,0.43,0.12,0.48,0.31c0.31,1.06,0.69,2.17,1.06,3.24l0.09,0.24l3.57,10.48
		c0.77,2.29,1.12,2.57,2.13,2.69l0.73,0.08l0.02,0.01c0.1,0.07,0.15,0.2,0.18,0.36C117.77,85.55,117.73,85.75,117.61,85.84z"/>
	<path class="st0" d="M66.58,96.6c-1.6,0-1.6,0.1-1.6,0.73v6.1c0,0.38,0,0.72,0.06,0.79c0.05,0.04,0.39,0.1,1.72,0.1
		c0.82,0,1.85-0.07,2.62-0.66c0.85-0.66,1.26-1.69,1.26-3.15C70.65,98.71,69.58,96.6,66.58,96.6z"/>
</g>
<g id="respiration" class="st1">
	<path class="st2" d="M642.63-103.85h-835.66v453.83h835.67v-453.83H642.63z M574.26,281.96h-699.6V-35.81h699.6L574.26,281.96
		L574.26,281.96z"/>
	<rect x="-193.46" y="-103.85" class="st3" width="68.37" height="68.37"/>
	<rect x="-193.46" y="281.96" class="st3" width="68.37" height="68.37"/>
	<line class="st3" x1="-193.46" y1="350.33" x2="642.63" y2="-103.85"/>
	<line class="st3" x1="-193.46" y1="-103.85" x2="642.63" y2="349.99"/>
</g>
<g id="structure" class="st1">
	<rect x="-125" y="-35.5" class="st4" width="317.48" height="317.48"/>
	<line class="st5" x1="192.48" y1="-262.39" x2="192.48" y2="505.61"/>
	<line class="st6" x1="-276.61" y1="-24.16" x2="746.91" y2="-24.16"/>
	<line class="st6" x1="-276.61" y1="-35.5" x2="746.91" y2="-35.5"/>
	<line class="st6" x1="-276.61" y1="-1.48" x2="746.91" y2="-1.48"/>
	<line class="st6" x1="-276.61" y1="-12.82" x2="746.91" y2="-12.82"/>
	<line class="st6" x1="-276.61" y1="21.19" x2="746.91" y2="21.19"/>
	<line class="st4" x1="-276.61" y1="9.85" x2="746.91" y2="9.85"/>
	<line class="st6" x1="-276.61" y1="43.87" x2="746.91" y2="43.87"/>
	<line class="st6" x1="-276.61" y1="32.53" x2="746.91" y2="32.53"/>
	<line class="st6" x1="-276.61" y1="66.55" x2="746.91" y2="66.55"/>
	<line class="st6" x1="-276.61" y1="55.21" x2="746.91" y2="55.21"/>
	<line class="st6" x1="-276.61" y1="89.22" x2="746.91" y2="89.22"/>
	<line class="st6" x1="-276.61" y1="77.89" x2="746.91" y2="77.89"/>
	<line class="st6" x1="-276.61" y1="111.9" x2="746.91" y2="111.9"/>
	<line class="st6" x1="-276.61" y1="100.56" x2="746.91" y2="100.56"/>
	<line class="st6" x1="-276.61" y1="134.58" x2="746.91" y2="134.58"/>
	<line class="st6" x1="-276.61" y1="123.24" x2="746.91" y2="123.24"/>
	<line class="st6" x1="-276.61" y1="145.92" x2="746.91" y2="145.92"/>
	<line class="st6" x1="-276.61" y1="168.59" x2="746.91" y2="168.59"/>
	<line class="st6" x1="-276.61" y1="157.26" x2="746.91" y2="157.26"/>
	<line class="st6" x1="-276.61" y1="191.27" x2="746.91" y2="191.27"/>
	<line class="st6" x1="-276.61" y1="179.93" x2="746.91" y2="179.93"/>
	<line class="st6" x1="-276.61" y1="213.95" x2="746.91" y2="213.95"/>
	<line class="st6" x1="-276.61" y1="202.61" x2="746.91" y2="202.61"/>
	<line class="st4" x1="-276.61" y1="236.63" x2="746.91" y2="236.63"/>
	<line class="st6" x1="-276.61" y1="225.29" x2="746.91" y2="225.29"/>
	<line class="st6" x1="-276.61" y1="259.3" x2="746.91" y2="259.3"/>
	<line class="st6" x1="-276.61" y1="247.96" x2="746.91" y2="247.96"/>
	<line class="st6" x1="-276.61" y1="281.98" x2="746.91" y2="281.98"/>
	<line class="st6" x1="-276.61" y1="270.64" x2="746.91" y2="270.64"/>
</g>
</svg>
