<?xml version="1.0" encoding="utf-8"?>
<!-- Generator: Adobe Illustrator 25.0.1, SVG Export Plug-In . SVG Version: 6.00 Build 0)  -->
<svg version="1.1" id="Calque_1" xmlns="http://www.w3.org/2000/svg" xmlns:xlink="http://www.w3.org/1999/xlink" x="0px" y="0px"
	 viewBox="0 0 1367.1 790.9" style="enable-background:new 0 0 1367.1 790.9;" xml:space="preserve">
<style type="text/css">
	.st0{fill:#F9F8F6;}
</style>
<g id="Calque_1_1_">
</g>
<g id="Mode_Isolation">
	<path class="st0" d="M1340.5,790.9H301c-10.3,0-18.6-8.3-18.6-18.6c0-10.3,8.3-18.6,18.6-18.6h1039.5c10.3,0,18.6,8.3,18.6,18.6
		C1359.1,782.5,1350.8,790.9,1340.5,790.9"/>
	<path class="st0" d="M1162.5,437.2H946.3c-10.3,0-18.6-8.3-18.6-18.6c0-10.3,8.3-18.6,18.6-18.6h216.2c10.3,0,18.6,8.3,18.6,18.6
		C1181.1,428.9,1172.8,437.2,1162.5,437.2"/>
	<path class="st0" d="M52.8,547.1H18.6C8.3,547.1,0,538.8,0,528.5c0-10.3,8.3-18.6,18.6-18.6h34.2c10.3,0,18.6,8.3,18.6,18.6
		C71.4,538.8,63,547.1,52.8,547.1"/>
	<path class="st0" d="M506.9,37.2H18.7c-10.3,0-18.6-8.3-18.6-18.6C0.1,8.3,8.4,0,18.7,0h488.2c10.3,0,18.6,8.3,18.6,18.6
		C525.5,28.9,517.2,37.2,506.9,37.2"/>
	<path class="st0" d="M264.3,194.3c0-51.6,34.2-84.8,90.9-84.8c24.1,0,40.4,5.3,51.8,11.2v37.2c-15.8-10.1-34.7-15.2-51.4-15.2
		c-25.6,0-50.7,13.5-50.7,47.1c0,31.1,17.3,52.4,49.3,52.4c6.5,0,13.1-0.8,19.2-2.1v-30h-24.1v-30h62.6v80.7
		c-16.5,8.9-34.5,13.5-63.2,13.5C298.3,274.4,264.3,248.2,264.3,194.3"/>
	<path class="st0" d="M436.1,271.4v-83.9l-4.7-31.3h34.9l3.2,15.2c8-10.8,18.2-18.2,35.1-18.2c1.7,0,3.4,0,5.1,0.2v33.2
		c-4.4-0.8-8.5-1.3-12.3-1.3c-10.4,0-18.8,3.2-25.8,9.9v76.1H436.1z"/>
	<path class="st0" d="M586.1,242v-14.2c-4.4-1.1-9.3-1.9-14.6-1.9c-12.7,0-18.6,3.8-18.6,10.6c0,5.7,2.5,11.2,14.2,11.2
		C574.3,247.7,580.9,245.8,586.1,242 M587,255.3c-7.6,12.5-18.8,19-37.2,19c-21.1,0-33.8-12.9-33.8-32.1c0-22,17.5-37.8,48-37.8
		c7.8,0,15.4,0.6,22,2.3c-0.8-14.8-7-20.9-22-20.9c-14.8,0-30.4,4.2-41,11.6v-31.7c10.1-7.2,29-12.5,46.5-12.5
		c34.9,0,52.2,13.5,52.2,46.3v46.7l2.3,25.2h-35.5L587,255.3z"/>
	<path class="st0" d="M644.6,271.4v-83.9l-4.7-31.3h34.9l3.4,15.6c8.5-11,19.9-18.6,37-18.6c20.9,0,39.1,9.9,39.1,38.7v79.5h-35.5
		v-64.3c0-16.5-6.1-23.2-18.6-23.2c-7.8,0-14,3.6-20.1,10.4v77.2L644.6,271.4L644.6,271.4z"/>
	<path class="st0" d="M855.1,233.6v-37.2c-5.7-9.9-12.3-15.4-22-15.4c-14.6,0-23.9,12-23.9,32.3c0,19.7,8.7,33.6,23.7,33.6
		C841.2,246.9,848.3,242.9,855.1,233.6 M890.6,107v164.4h-30.2L857,256c-9.9,12.3-20.9,18-38.7,18c-27.9,0-46.9-21.3-46.9-57.3
		c0-37.8,23.7-63,52.4-63c13.7,0,23.9,4.2,31.3,13.7V107L890.6,107L890.6,107z"/>
	<path class="st0" d="M196.8,346.2v50.5h8c23.7,0,35.3-8.2,35.3-25.2c0-17.3-12.7-25.2-35.9-25.4L196.8,346.2L196.8,346.2z
		 M158.2,314.9h53.1c38.7,0,68.5,13.7,68.5,54.9c0,29.2-22.4,58.1-68.9,58.1h-13.9v46.3h-38.7L158.2,314.9L158.2,314.9z"/>
	<path class="st0" d="M360.2,444.9v-14.2c-4.4-1.1-9.3-1.9-14.6-1.9c-12.7,0-18.6,3.8-18.6,10.6c0,5.7,2.5,11.2,14.2,11.2
		C348.4,450.6,354.9,448.7,360.2,444.9 M361.1,458.2c-7.6,12.5-18.8,19-37.2,19c-21.1,0-33.8-12.9-33.8-32.1c0-22,17.5-37.8,48-37.8
		c7.8,0,15.4,0.6,22,2.3c-0.8-14.8-7-20.9-22-20.9c-14.8,0-30.4,4.2-41,11.6v-31.7c10.1-7.2,29-12.5,46.5-12.5
		c34.9,0,52.2,13.5,52.2,46.3v46.7l2.3,25.2h-35.5L361.1,458.2z"/>
	<path class="st0" d="M423.2,474.3v-83.9l-4.7-31.3h34.9l3.2,15.2c8-10.8,18.2-18.2,35.1-18.2c1.7,0,3.4,0,5.1,0.2v33.2
		c-4.4-0.8-8.5-1.3-12.3-1.3c-10.4,0-18.8,3.2-25.8,9.9v76.1L423.2,474.3L423.2,474.3z"/>
	<path class="st0" d="M516,359.1h35.5v115.2H516V359.1z M515.4,309.9h36.8v33h-36.8V309.9z"/>
	<path class="st0" d="M575.4,467.6v-29.8c18,7.4,31.3,10.8,44.4,10.8c11.4,0,18.2-1.5,18.2-7.2c0-7.6-13.5-7.8-24.9-9.9
		c-26.8-4.9-38.3-15.6-38.3-35.5c0-23.2,23.5-39.3,50.5-39.3c16.1,0,31.9,3.2,42.3,8.7V395c-15-7.4-27.1-10.6-38.7-10.6
		c-11.8,0-18.6,3.4-18.6,8.2c0,6.6,12.7,8.9,23.5,10.6c12.3,1.9,38.7,5.1,38.7,33.6c0,24.3-24.9,39.5-54.5,39.5
		C602.2,476.4,588.3,473,575.4,467.6"/>
	<path class="st0" d="M319.5,588.4h40.6c-1.1-13.7-5.9-22-19.4-22C329.4,566.5,321.6,574.1,319.5,588.4 M283.6,603.2
		c0-38.5,23.5-63,57.1-63c38.9,0,56,23,56,68.9l-76.7,0.2c3.4,14.4,14,20.7,31.1,20.7c12.5,0,28.3-2.5,42.3-10.8V647
		c-12.9,8.9-31.9,13.3-49.9,13.3C306,660.3,283.6,639.8,283.6,603.2"/>
	<polygon class="st0" points="468.1,575.8 490.3,543 527.3,543 483.3,598.6 529.2,658.2 486.5,658.2 463.9,625.2 441.9,658.2 
		403.6,658.2 448.4,602.6 405.9,543 448.2,543 	"/>
	<path class="st0" d="M581.6,580.4v42.1c6.3,7.8,12.9,11.2,20.5,11.2c15,0,23.7-13.9,23.7-33.6c0-20.3-9.3-32.3-23.9-32.3
		C593,567.7,586.9,572.2,581.6,580.4 M546.1,705.1V574.3l-4.7-31.3h34.9l3.4,15.4c8.5-11.6,19.7-18,33.6-18
		c28.7,0,50.3,21.1,50.3,59c0,35.9-19,61.3-46.9,61.3c-15.6,0-26.2-4.4-35.1-13.7v58.1L546.1,705.1L546.1,705.1z"/>
	<path class="st0" d="M684.1,658.2v-83.9l-4.7-31.3h34.9l3.2,15.2c8-10.8,18.2-18.2,35.1-18.2c1.7,0,3.4,0,5.1,0.2v33.2
		c-4.4-0.8-8.4-1.3-12.3-1.3c-10.4,0-18.8,3.2-25.8,9.9v76.1L684.1,658.2L684.1,658.2z"/>
	<path class="st0" d="M804.4,588.4H845c-1.1-13.7-5.9-22-19.4-22C814.3,566.5,806.5,574.1,804.4,588.4 M768.4,603.2
		c0-38.5,23.5-63,57.1-63c38.9,0,56,23,56,68.9l-76.7,0.2c3.4,14.4,13.9,20.7,31.1,20.7c12.5,0,28.3-2.5,42.3-10.8V647
		c-12.9,8.9-31.9,13.3-49.9,13.3C790.8,660.3,768.4,639.8,768.4,603.2"/>
	<path class="st0" d="M902,651.4v-29.8c18,7.4,31.3,10.8,44.4,10.8c11.4,0,18.2-1.5,18.2-7.2c0-7.6-13.5-7.8-24.9-9.9
		c-26.8-4.9-38.3-15.6-38.3-35.5c0-23.2,23.5-39.3,50.5-39.3c16.1,0,31.9,3.2,42.3,8.7v29.8c-15-7.4-27.1-10.6-38.7-10.6
		c-11.8,0-18.6,3.4-18.6,8.2c0,6.6,12.7,8.9,23.5,10.6c12.3,1.9,38.7,5.1,38.7,33.6c0,24.3-24.9,39.5-54.5,39.5
		C928.9,660.3,914.9,656.9,902,651.4"/>
	<path class="st0" d="M1017.4,651.4v-29.8c18,7.4,31.3,10.8,44.4,10.8c11.4,0,18.2-1.5,18.2-7.2c0-7.6-13.5-7.8-24.9-9.9
		c-26.8-4.9-38.3-15.6-38.3-35.5c0-23.2,23.5-39.3,50.5-39.3c16.1,0,31.9,3.2,42.3,8.7v29.8c-15-7.4-27.1-10.6-38.7-10.6
		c-11.8,0-18.6,3.4-18.6,8.2c0,6.6,12.7,8.9,23.5,10.6c12.3,1.9,38.7,5.1,38.7,33.6c0,24.3-24.9,39.5-54.5,39.5
		C1044.3,660.3,1030.3,656.9,1017.4,651.4"/>
	<path class="st0" d="M1348.5,273.8h-80.3c-10.3,0-18.6-8.3-18.6-18.6c0-10.3,8.3-18.6,18.6-18.6h80.3c10.3,0,18.6,8.3,18.6,18.6
		C1367.1,265.5,1358.8,273.8,1348.5,273.8"/>
</g>
</svg>
