<?xml version="1.0" encoding="utf-8"?>
<!-- Generator: Adobe Illustrator 25.0.1, SVG Export Plug-In . SVG Version: 6.00 Build 0)  -->
<svg version="1.1" xmlns="http://www.w3.org/2000/svg" xmlns:xlink="http://www.w3.org/1999/xlink" x="0px" y="0px"
	 viewBox="0 0 10.26 6.38" style="enable-background:new 0 0 10.26 6.38;" xml:space="preserve">
<style type="text/css">
	.st0{fill:#F9F8F6;}
</style>
<g id="Calque_1">
</g>
<g id="Mode_Isolation">
	<path class="st0" d="M3.23,1.42c0-0.21-0.18-0.28-0.34-0.32C2.75,1.06,2.65,1.02,2.65,0.93c0-0.08,0.08-0.13,0.2-0.13
		c0.12,0,0.25,0.04,0.34,0.09V0.7C3.11,0.65,2.98,0.62,2.84,0.62c-0.22,0-0.4,0.12-0.4,0.33c0,0.21,0.15,0.28,0.31,0.32
		C2.9,1.3,3.02,1.33,3.02,1.43c0,0.09-0.08,0.15-0.21,0.15c-0.12,0-0.27-0.04-0.36-0.1v0.2c0.11,0.05,0.23,0.08,0.35,0.08
		C3.03,1.76,3.23,1.65,3.23,1.42"/>
	<path class="st0" d="M3.77,1.09c0.13,0,0.21,0.1,0.21,0.26c0,0.16-0.08,0.26-0.21,0.26c-0.13,0-0.21-0.1-0.21-0.26
		C3.56,1.19,3.64,1.09,3.77,1.09 M3.76,1.76c0.26,0,0.41-0.17,0.41-0.42c0-0.26-0.16-0.41-0.4-0.41c-0.26,0-0.41,0.18-0.41,0.43
		C3.36,1.61,3.52,1.76,3.76,1.76"/>
	<path class="st0" d="M4.71,1.75c0.1,0,0.18-0.02,0.23-0.05V1.55C4.88,1.58,4.82,1.59,4.76,1.59c-0.15,0-0.25-0.08-0.25-0.25
		c0-0.17,0.1-0.25,0.24-0.25c0.06,0,0.13,0.01,0.19,0.05V0.97C4.88,0.94,4.82,0.93,4.72,0.93c-0.26,0-0.41,0.19-0.41,0.43
		C4.31,1.6,4.46,1.75,4.71,1.75"/>
	<rect x="5.12" y="0.95" class="st0" width="0.19" height="0.79"/>
	<rect x="5.12" y="0.61" class="st0" width="0.2" height="0.2"/>
	<polygon class="st0" points="5.94,0.57 5.8,0.84 5.95,0.84 6.13,0.57 	"/>
	<path class="st0" d="M5.87,1.08c0.11,0,0.15,0.08,0.16,0.19H5.69C5.71,1.13,5.78,1.08,5.87,1.08 M5.89,1.76
		c0.12,0,0.24-0.03,0.33-0.1V1.5C6.12,1.56,6.02,1.59,5.93,1.59c-0.14,0-0.22-0.06-0.23-0.2h0.54c0-0.3-0.11-0.46-0.36-0.46
		C5.65,0.93,5.5,1.1,5.5,1.36C5.5,1.61,5.64,1.76,5.89,1.76"/>
	<path class="st0" d="M6.65,1.46V1.1h0.22V0.95H6.65V0.72H6.5L6.47,0.95H6.34V1.1h0.12v0.39c0,0.18,0.06,0.28,0.26,0.28
		c0.06,0,0.14-0.02,0.18-0.04V1.58C6.86,1.59,6.81,1.6,6.77,1.6C6.69,1.6,6.66,1.56,6.65,1.46"/>
	<path class="st0" d="M7.38,1.08c0.11,0,0.15,0.08,0.16,0.19H7.2C7.22,1.13,7.29,1.08,7.38,1.08 M7.72,1.5
		c-0.1,0.06-0.2,0.09-0.29,0.09c-0.14,0-0.22-0.06-0.23-0.2h0.54c0-0.3-0.11-0.46-0.36-0.46C7.15,0.93,7,1.1,7,1.36
		c0,0.25,0.14,0.4,0.39,0.4c0.12,0,0.24-0.03,0.33-0.1V1.5z"/>
	<polygon class="st0" points="7.45,0.57 7.3,0.84 7.46,0.84 7.63,0.57 	"/>
	<path class="st0" d="M0.59,3.03C0.53,3.11,0.47,3.14,0.4,3.14c-0.13,0-0.19-0.11-0.19-0.26c0-0.17,0.08-0.26,0.2-0.26
		c0.08,0,0.14,0.04,0.18,0.12V3.03z M0.59,2.56c-0.06-0.07-0.13-0.1-0.22-0.1C0.17,2.46,0,2.62,0,2.9c0,0.24,0.12,0.39,0.33,0.39
		c0.12,0,0.2-0.05,0.27-0.13l0.02,0.11h0.16V2.13H0.59V2.56z"/>
	<path class="st0" d="M1.71,2.48H1.51v0.55C1.46,3.1,1.4,3.12,1.34,3.12c-0.09,0-0.15-0.04-0.15-0.18V2.48H1v0.53
		C1,3.2,1.1,3.29,1.26,3.29c0.11,0,0.2-0.05,0.26-0.12l0.02,0.1h0.19L1.71,3.05V2.48z"/>
	<path class="st0" d="M3.29,3.2V2.66H2.87v0.16h0.22v0.27C3.03,3.11,2.97,3.11,2.91,3.11c-0.24,0-0.38-0.15-0.38-0.41
		c0-0.25,0.17-0.38,0.38-0.38c0.11,0,0.24,0.03,0.35,0.1v-0.2C3.18,2.19,3.08,2.15,2.91,2.15c-0.38,0-0.6,0.25-0.6,0.58
		c0,0.35,0.22,0.56,0.57,0.56C3.06,3.29,3.17,3.26,3.29,3.2"/>
	<path class="st0" d="M3.69,3.27V2.74c0.05-0.07,0.11-0.1,0.19-0.1c0.03,0,0.05,0,0.08,0.01V2.46c-0.02,0-0.03,0-0.05,0
		c-0.1,0-0.18,0.05-0.23,0.13L3.66,2.48H3.47L3.5,2.71v0.57H3.69z"/>
	<path class="st0" d="M4.25,3.05c0-0.07,0.05-0.1,0.16-0.1c0.05,0,0.09,0.01,0.13,0.02v0.12C4.5,3.12,4.43,3.14,4.37,3.14
		C4.29,3.14,4.25,3.11,4.25,3.05 M4.55,3.17l0.01,0.1h0.19L4.74,3.1V2.77c0-0.23-0.12-0.31-0.33-0.31c-0.11,0-0.24,0.03-0.31,0.08
		v0.18c0.07-0.05,0.18-0.09,0.28-0.09c0.11,0,0.17,0.05,0.17,0.18v0.02C4.5,2.82,4.44,2.82,4.38,2.82c-0.21,0-0.33,0.09-0.33,0.25
		c0,0.13,0.09,0.22,0.23,0.22C4.41,3.29,4.49,3.25,4.55,3.17"/>
	<path class="st0" d="M5.49,2.81v0.46h0.19V2.74c0-0.19-0.1-0.28-0.27-0.28c-0.12,0-0.2,0.05-0.27,0.13L5.12,2.48H4.93l0.03,0.23
		v0.57h0.19V2.73c0.05-0.07,0.12-0.1,0.18-0.1C5.43,2.63,5.49,2.67,5.49,2.81"/>
	<path class="st0" d="M6.44,3.03C6.39,3.11,6.32,3.14,6.25,3.14c-0.13,0-0.19-0.11-0.19-0.26c0-0.17,0.08-0.26,0.2-0.26
		c0.08,0,0.14,0.04,0.18,0.12V3.03z M6.44,2.56c-0.06-0.07-0.13-0.1-0.22-0.1c-0.19,0-0.36,0.16-0.36,0.43
		c0,0.24,0.12,0.39,0.33,0.39c0.12,0,0.21-0.05,0.27-0.13l0.02,0.11h0.16V2.13H6.44V2.56z"/>
	<path class="st0" d="M2.83,4.27H2.74V3.87h0.1c0.17,0,0.27,0.06,0.27,0.2C3.1,4.22,2.99,4.26,2.83,4.27 M2.89,3.7H2.53v1.1h0.21
		V4.44h0.12c0.31,0,0.47-0.18,0.47-0.38C3.32,3.79,3.13,3.7,2.89,3.7"/>
	<path class="st0" d="M3.91,4.61C3.86,4.65,3.79,4.67,3.73,4.67c-0.08,0-0.12-0.04-0.12-0.1c0-0.07,0.05-0.1,0.16-0.1
		c0.05,0,0.09,0.01,0.13,0.02V4.61z M4.1,4.3c0-0.23-0.12-0.31-0.33-0.31c-0.11,0-0.24,0.03-0.31,0.08v0.18
		C3.53,4.2,3.65,4.16,3.74,4.16c0.11,0,0.17,0.05,0.17,0.18v0.02C3.86,4.36,3.8,4.35,3.74,4.35c-0.21,0-0.33,0.09-0.33,0.25
		c0,0.13,0.09,0.22,0.23,0.22c0.12,0,0.21-0.04,0.26-0.12l0.01,0.1h0.19L4.1,4.63V4.3z"/>
	<path class="st0" d="M4.5,4.12L4.48,4.01H4.29l0.03,0.23V4.8h0.19V4.27c0.05-0.07,0.11-0.1,0.19-0.1c0.03,0,0.05,0,0.08,0.01V4
		C4.77,3.99,4.76,3.99,4.74,3.99C4.64,3.99,4.56,4.04,4.5,4.12"/>
	<rect x="4.93" y="4.01" class="st0" width="0.19" height="0.79"/>
	<rect x="4.93" y="3.68" class="st0" width="0.21" height="0.2"/>
	<path class="st0" d="M5.68,4.32C5.6,4.31,5.51,4.3,5.51,4.23c0-0.05,0.06-0.08,0.15-0.08c0.08,0,0.17,0.02,0.26,0.07V4.05
		C5.85,4.01,5.74,3.99,5.64,3.99c-0.17,0-0.33,0.1-0.33,0.26c0,0.15,0.12,0.21,0.26,0.23C5.66,4.5,5.77,4.5,5.77,4.58
		c0,0.06-0.06,0.08-0.15,0.08c-0.09,0-0.18-0.02-0.29-0.07v0.17C5.4,4.8,5.5,4.82,5.6,4.82c0.18,0,0.35-0.09,0.35-0.26
		C5.95,4.37,5.77,4.34,5.68,4.32"/>
	<path class="st0" d="M10.09,3.94C9.88,4.26,9.37,4.41,8.87,4.56C8.74,4.6,8.61,4.64,8.49,4.68V3.71v0V3.7v0v0
		c0-0.05-0.01-0.09-0.03-0.13l0,0c0-0.01-0.01-0.03-0.02-0.04c0,0,0,0,0-0.01C8.43,3.51,8.43,3.5,8.42,3.49c0,0-0.01-0.01-0.01-0.01
		C8.41,3.47,8.4,3.46,8.39,3.45c0,0-0.01-0.01-0.01-0.01C8.38,3.44,8.37,3.43,8.37,3.42c0-0.01-0.01-0.01-0.01-0.01
		C8.35,3.4,8.34,3.4,8.33,3.39c0,0-0.01-0.01-0.02-0.01C8.31,3.37,8.31,3.37,8.3,3.36C8.29,3.36,8.29,3.35,8.28,3.35
		c-0.01,0-0.01-0.01-0.02-0.01c-0.01,0-0.01-0.01-0.02-0.01S8.23,3.31,8.23,3.31c0,0-0.01,0-0.01-0.01
		c-0.06-0.04-0.13-0.08-0.2-0.11C7.81,3.07,7.6,2.96,7.6,2.74c0-0.06,0.02-0.12,0.07-0.19C7.88,2.23,8.4,2.08,8.89,1.93
		c0.13-0.04,0.26-0.08,0.38-0.12l0,0.96c0,0.28,0.24,0.41,0.48,0.55c0.07,0.04,0.13,0.07,0.19,0.11l0.01,0
		c0.01,0,0.01,0.01,0.02,0.01c0,0,0.01,0,0.01,0c0.01,0,0.01,0.01,0.02,0.01c0,0,0.01,0,0.01,0.01c0.01,0,0.01,0.01,0.02,0.01
		c0,0,0.01,0.01,0.01,0.01c0.01,0,0.01,0.01,0.01,0.01c0,0,0.01,0.01,0.01,0.01c0,0,0.01,0.01,0.01,0.01c0,0,0.01,0.01,0.01,0.01
		c0,0,0.01,0.01,0.01,0.01c0,0,0.01,0.01,0.01,0.01c0,0,0.01,0.01,0.01,0.01c0,0,0.01,0.01,0.01,0.01c0,0,0.01,0.01,0.01,0.01
		c0,0,0.01,0.01,0.01,0.01c0,0,0.01,0.01,0.01,0.01c0,0,0.01,0.01,0.01,0.01c0,0,0,0.01,0.01,0.01c0,0,0,0.01,0.01,0.01v0.1
		C10.16,3.8,10.14,3.87,10.09,3.94 M8.03,5.92C7.81,5.8,7.6,5.68,7.6,5.47c0-0.04,0.01-0.08,0.03-0.12C7.64,5.32,7.65,5.3,7.67,5.28
		C7.68,5.26,7.69,5.25,7.7,5.23c0-0.01,0.01-0.01,0.01-0.01C7.72,5.21,7.73,5.2,7.73,5.19c0.01-0.01,0.01-0.01,0.01-0.02
		c0.01-0.01,0.02-0.02,0.02-0.02c0.01,0,0.01-0.01,0.02-0.01C7.8,5.13,7.81,5.12,7.81,5.12C7.82,5.11,7.83,5.11,7.83,5.1
		C7.84,5.1,7.85,5.09,7.86,5.08c0.01-0.01,0.01-0.01,0.02-0.01C7.89,5.06,7.9,5.05,7.9,5.05c0.01,0,0.01-0.01,0.02-0.01
		c0.01-0.01,0.02-0.01,0.03-0.02c0.01,0,0.01-0.01,0.02-0.01C7.98,5,7.99,4.99,8,4.99c0.01,0,0.01-0.01,0.02-0.01
		c0.01-0.01,0.02-0.01,0.03-0.02c0.01,0,0.01-0.01,0.02-0.01C8.09,4.94,8.1,4.94,8.11,4.93c0,0,0.01-0.01,0.02-0.01
		C8.14,4.92,8.16,4.91,8.17,4.9c0,0,0.01,0,0.01-0.01C8.2,4.89,8.22,4.88,8.23,4.88l0,0c0.02-0.01,0.04-0.01,0.06-0.02
		c0,0,0.01,0,0.01,0c0.01,0,0.03-0.01,0.04-0.02c0.01,0,0.01-0.01,0.02-0.01c0.01,0,0.02-0.01,0.03-0.01v1.35
		C8.3,6.07,8.16,5.99,8.03,5.92 M8.39,3.71L8.39,3.71L8.39,3.71L8.39,3.71v1L8.37,4.72c0,0-0.01,0-0.02,0.01
		c-0.02,0-0.03,0.01-0.05,0.02c0,0,0,0,0,0C8.07,4.83,7.83,4.95,7.66,5.13c0,0,0,0,0,0C7.65,5.14,7.64,5.16,7.63,5.17
		C7.62,5.18,7.62,5.18,7.61,5.19C7.61,5.19,7.6,5.2,7.6,5.21V3c0,0,0,0.01,0.01,0.01c0.01,0.01,0.01,0.02,0.02,0.03
		c0,0.01,0.01,0.01,0.01,0.01c0.01,0.01,0.02,0.02,0.03,0.02c0,0,0.01,0.01,0.01,0.01C7.69,3.09,7.7,3.1,7.71,3.11
		c0,0,0.01,0,0.01,0.01c0.01,0.01,0.03,0.02,0.04,0.03c0,0,0.01,0,0.01,0.01C7.79,3.16,7.8,3.17,7.81,3.18c0,0,0.01,0.01,0.02,0.01
		C7.84,3.19,7.85,3.2,7.86,3.21c0,0,0.01,0.01,0.02,0.01C7.89,3.22,7.9,3.23,7.91,3.24c0.01,0,0.01,0.01,0.01,0.01
		c0.01,0.01,0.03,0.02,0.05,0.03C8,3.28,8.03,3.3,8.05,3.31C8.23,3.42,8.39,3.52,8.39,3.71 M9.75,0.58
		c0.21,0.12,0.41,0.23,0.42,0.44c0,0,0,0.01,0,0.01c0,0.01,0,0.02,0,0.04c0,0,0,0,0,0c0,0.01-0.01,0.03-0.01,0.04c0,0,0,0,0,0
		c-0.01,0.02-0.01,0.03-0.02,0.05l0,0c-0.01,0.02-0.02,0.03-0.03,0.05c-0.01,0.01-0.02,0.03-0.03,0.04c0,0.01-0.01,0.01-0.01,0.01
		c-0.01,0.01-0.02,0.02-0.02,0.03c0,0.01-0.01,0.01-0.02,0.02C10,1.32,10,1.33,9.99,1.33C9.98,1.34,9.98,1.34,9.97,1.35
		C9.96,1.36,9.95,1.36,9.95,1.37C9.94,1.38,9.93,1.38,9.93,1.39C9.92,1.39,9.91,1.4,9.9,1.41C9.9,1.41,9.89,1.42,9.88,1.42
		C9.87,1.43,9.87,1.43,9.86,1.44C9.85,1.44,9.84,1.45,9.84,1.45C9.83,1.46,9.82,1.47,9.81,1.47c-0.01,0-0.01,0.01-0.02,0.01
		c-0.01,0-0.02,0.01-0.03,0.02c-0.01,0-0.02,0.01-0.02,0.01C9.73,1.52,9.72,1.52,9.71,1.53c-0.01,0-0.01,0.01-0.02,0.01
		c-0.01,0-0.02,0.01-0.03,0.01c-0.01,0-0.02,0.01-0.02,0.01C9.62,1.57,9.61,1.58,9.6,1.58c-0.01,0-0.01,0.01-0.02,0.01
		C9.57,1.6,9.55,1.6,9.54,1.61c-0.01,0-0.01,0-0.01,0.01C9.51,1.62,9.49,1.63,9.47,1.64c-0.01,0-0.01,0.01-0.02,0.01
		c-0.01,0-0.02,0.01-0.03,0.01c-0.01,0-0.02,0.01-0.02,0.01c-0.01,0-0.01,0.01-0.02,0.01V0.31C9.46,0.42,9.6,0.5,9.75,0.58
		 M10.16,1.28l0,2.19c0,0,0,0,0,0c-0.01-0.01-0.02-0.02-0.03-0.03c0,0-0.01-0.01-0.01-0.01c-0.01-0.01-0.02-0.01-0.03-0.02
		c0,0-0.01-0.01-0.01-0.01c-0.01-0.01-0.02-0.02-0.04-0.03c0,0-0.01,0-0.01-0.01C10.02,3.36,10.01,3.35,10,3.34
		c-0.01,0-0.01-0.01-0.01-0.01C9.98,3.33,9.97,3.32,9.96,3.32c0,0-0.01-0.01-0.01-0.01C9.93,3.3,9.92,3.29,9.91,3.28
		c-0.01,0-0.01-0.01-0.02-0.01C9.88,3.27,9.87,3.26,9.86,3.26C9.84,3.25,9.82,3.24,9.8,3.23C9.58,3.1,9.37,2.99,9.37,2.77V1.78
		l0.01-0.01c0.01,0,0.01-0.01,0.02-0.01c0.01,0,0.02-0.01,0.03-0.01c0.01,0,0.02-0.01,0.03-0.01c0.01,0,0.02-0.01,0.03-0.01
		c0.01,0,0.02-0.01,0.03-0.01C9.54,1.71,9.55,1.71,9.56,1.7c0.01,0,0.02-0.01,0.03-0.01C9.6,1.69,9.61,1.68,9.62,1.68
		c0.01,0,0.02-0.01,0.03-0.01c0.01,0,0.02-0.01,0.03-0.01c0.01,0,0.02-0.01,0.03-0.01c0.01-0.01,0.02-0.01,0.03-0.02
		c0.01,0,0.02-0.01,0.02-0.01C9.77,1.61,9.78,1.6,9.79,1.6c0.01,0,0.01-0.01,0.02-0.01c0.01-0.01,0.02-0.01,0.04-0.02
		c0.01,0,0.01-0.01,0.02-0.01C9.88,1.54,9.9,1.53,9.91,1.52c0,0,0.01,0,0.01-0.01C9.93,1.5,9.95,1.49,9.96,1.48
		c0.01,0,0.01-0.01,0.02-0.01C9.99,1.46,10,1.45,10.01,1.45c0.01-0.01,0.01-0.01,0.02-0.02c0.01-0.01,0.02-0.02,0.03-0.02
		c0.01,0,0.01-0.01,0.02-0.02c0.01-0.01,0.02-0.02,0.02-0.03c0.01-0.01,0.01-0.01,0.02-0.02c0.01-0.01,0.01-0.02,0.02-0.03
		c0-0.01,0.01-0.01,0.01-0.02C10.15,1.29,10.16,1.29,10.16,1.28 M10.26,1.01c0-0.27-0.24-0.4-0.47-0.52
		C9.58,0.37,9.37,0.26,9.37,0.05C9.37,0.02,9.35,0,9.32,0C9.3,0,9.27,0.02,9.27,0.05v1.66C9.14,1.75,9,1.79,8.87,1.83
		C8.35,1.99,7.82,2.15,7.59,2.5C7.53,2.58,7.5,2.66,7.5,2.74v0v0l0,2.72l0,0v0c0,0.28,0.25,0.41,0.48,0.54
		c0.18,0.1,0.35,0.19,0.41,0.34C8.4,6.37,8.42,6.38,8.44,6.38c0,0,0.01,0,0.01,0c0.03,0,0.04-0.02,0.04-0.05V4.78
		C8.62,4.74,8.76,4.7,8.89,4.65c0.52-0.15,1.05-0.31,1.28-0.66c0.06-0.09,0.09-0.17,0.09-0.25V3.64V1.02V1.01z"/>
</g>
</svg>
