<?xml version="1.0" encoding="utf-8"?>
<!-- Generator: Adobe Illustrator 25.0.1, SVG Export Plug-In . SVG Version: 6.00 Build 0)  -->
<svg version="1.1" id="Calque_1" xmlns="http://www.w3.org/2000/svg" xmlns:xlink="http://www.w3.org/1999/xlink" x="0px" y="0px"
	 viewBox="0 0 696.58 107.61" style="enable-background:new 0 0 696.58 107.61;" xml:space="preserve">
<style type="text/css">
	.st0{fill:#F9F8F6;}
</style>
<path class="st0" d="M0,24.38h29.48l15.33,48.26l15.33-48.26h29.04l-31.84,83.23h-25.5L0,24.38z M238.59,82.83v-0.3
	c0-16.62,12.53-25.22,31.25-25.22c7.37,0,14.59,1.48,19.17,3.12V59.1c0-8.31-5.16-13.06-15.92-13.06c-8.4,0-14.89,1.63-21.97,4.45
	l-5.75-19.88c8.99-3.71,18.58-6.23,32.28-6.23c14.3,0,24.03,3.41,30.37,9.79c6.04,5.93,8.55,14.24,8.55,25.52v47.92h-27.72V97.52
	c-5.45,6.08-12.97,10.09-23.44,10.09C250.24,107.61,238.59,98.86,238.59,82.83L238.59,82.83z M289.3,76.75v-3.71
	c-2.8-1.19-6.78-2.08-10.91-2.08c-8.11,0-12.83,4-12.83,9.94v0.3c0,5.49,4.13,8.75,9.88,8.75C283.56,89.96,289.3,84.76,289.3,76.75z
	 M330.12,66.19v-0.3c0-22.55,17.54-41.57,42.75-41.57c16.36,0,27.27,7.08,34.05,17.84L387.9,56.31c-3.83-5.31-8.11-8.4-14.89-8.4
	c-8.99,0-15.62,7.96-15.62,17.69v0.3c0,10.32,6.49,18.13,15.92,18.13c6.63,0,10.91-3.09,15.33-8.25l18.72,13.56
	c-7.37,10.91-17.98,18.28-35.53,18.28C347.81,107.61,330.12,88.74,330.12,66.19z M474.68,81.23V48.79h-9.43V26.38h9.43V10.17h28.01
	v16.21h18.57V48.8h-18.57v26.98c0,5.6,2.5,7.96,7.66,7.96c3.69,0,7.22-1.03,10.61-2.65v21.96c-5.01,2.8-11.65,4.57-19.46,4.57
	C484.71,107.61,474.68,100.24,474.68,81.23L474.68,81.23z M626.26,95.82l10.46-16.95c9.14,6.04,19.17,9.14,27.42,9.14
	c4.87,0,7.08-1.47,7.08-4.28v-0.3c0-3.09-4.42-4.42-12.83-6.78c-15.77-4.13-28.3-9.43-28.3-25.5v-0.3
	c0-16.95,13.56-26.39,31.99-26.39c11.65,0,23.73,3.39,32.87,9.29l-9.58,17.69c-8.25-4.57-17.25-7.37-23.58-7.37
	c-4.28,0-6.49,1.62-6.49,3.83v0.3c0,3.1,4.57,4.57,12.97,7.08c15.77,4.42,28.3,9.88,28.3,25.35v0.29
	c0,17.54-13.12,26.68-32.58,26.68C650.58,107.61,637.32,103.78,626.26,95.82L626.26,95.82z M144.05,24.38h29.48l15.33,48.26
	l15.33-48.26h29.04l-31.84,83.23h-25.5L144.05,24.38L144.05,24.38z M534.37,82.83v-0.3c0-16.62,12.53-25.22,31.25-25.22
	c7.37,0,14.59,1.48,19.17,3.12V59.1c0-8.31-5.16-13.06-15.92-13.06c-8.4,0-14.89,1.63-21.97,4.45l-5.75-19.88
	c8.99-3.71,18.58-6.23,32.28-6.23c14.3,0,24.03,3.41,30.37,9.79c6.04,5.93,8.55,14.24,8.55,25.52v47.92h-27.72V97.52
	c-5.45,6.08-12.97,10.09-23.44,10.09C546.01,107.61,534.37,98.86,534.37,82.83L534.37,82.83z M585.08,76.75v-3.71
	c-2.8-1.19-6.78-2.08-10.91-2.08c-8.11,0-12.83,4-12.83,9.94v0.3c0,5.49,4.13,8.75,9.88,8.75
	C579.33,89.96,585.08,84.76,585.08,76.75z M419.88,0h29.19v19.04h-29.19V0z M420.47,26.26h28.01v81.35h-28.01V26.26z"/>
<g>
	<path class="st0" d="M102.8,0h29.19v19.04H102.8V0z M103.39,26.26h28.01v81.35h-28.01L103.39,26.26z"/>
</g>
</svg>
